<svg width="13" height="12" viewBox="0 0 13 12" fill="none" xmlns="http://www.w3.org/2000/svg">
<path d="M7.04167 0C4.06144 0 1.58634 2.21073 1.15104 5.09091H0L1.44444 6.90909L2.88889 5.09091H1.88455C2.31222 2.61044 4.45436 0.727273 7.04167 0.727273C9.93777 0.727273 12.2778 3.08367 12.2778 6C12.2778 8.91633 9.93777 11.2727 7.04167 11.2727C5.15732 11.2727 3.50633 10.2787 2.5842 8.7784L1.96918 9.14203C3.01894 10.8567 4.89793 12 7.04167 12C10.3281 12 13 9.30938 13 6C13 2.69061 10.3281 0 7.04167 0ZM6.68056 2.72727V3.09091V6V6.17045L6.81597 6.28409L8.62153 7.73864L8.90365 7.96591L9.35503 7.39773L9.07292 7.17045L7.40278 5.82387V3.09091V2.72727H6.68056Z" fill="#292929"/>
</svg>
