<svg width="20" height="20" viewBox="0 0 20 20" fill="none" xmlns="http://www.w3.org/2000/svg">
<path d="M16.622 8.63531L16.2473 7.75719L15.583 6.2C15.0127 4.86344 13.6523 4 12.1167 4H7.88333C6.348 4 4.98733 4.86344 4.417 6.2L3.75267 7.75719L3.378 8.63531C2.574 8.92188 2 9.64563 2 10.5V12C2 12.5037 2.20533 12.9584 2.53333 13.3103V15C2.53333 15.5522 3.011 16 3.6 16H4.66667C5.25567 16 5.73333 15.5522 5.73333 15V14H14.2667V15C14.2667 15.5522 14.7443 16 15.3333 16H16.4C16.989 16 17.4667 15.5522 17.4667 15V13.3103C17.7947 12.9587 18 12.5041 18 12V10.5C18 9.64563 17.426 8.92188 16.622 8.63531ZM6.39767 6.94281C6.64067 6.37344 7.229 6 7.88333 6H12.1167C12.771 6 13.3593 6.37344 13.6023 6.94281L14.2667 8.5H5.73333L6.39767 6.94281ZM4.66667 11.9937C4.02667 11.9937 3.6 11.595 3.6 10.9969C3.6 10.3987 4.02667 10 4.66667 10C5.30667 10 6.26667 10.8972 6.26667 11.4953C6.26667 12.0934 5.30667 11.9937 4.66667 11.9937ZM15.3333 11.9937C14.6933 11.9937 13.7333 12.0934 13.7333 11.4953C13.7333 10.8972 14.6933 10 15.3333 10C15.9733 10 16.4 10.3987 16.4 10.9969C16.4 11.595 15.9733 11.9937 15.3333 11.9937Z" fill="#96A7AF"/>
</svg>
