<svg width="18" height="18" viewBox="0 0 18 18" fill="none" xmlns="http://www.w3.org/2000/svg">
<path d="M1.5 14.8333V7.39167C1.49996 7.11735 1.56763 6.84726 1.69701 6.60537C1.82639 6.36348 2.01347 6.15726 2.24167 6.00501L8.075 2.11668C8.34888 1.93394 8.67075 1.83643 9 1.83643C9.32925 1.83643 9.65112 1.93394 9.925 2.11668L15.7583 6.00501C15.9865 6.15726 16.1736 6.36348 16.303 6.60537C16.4324 6.84726 16.5 7.11735 16.5 7.39167V14.8333M1.5 14.8333C1.5 15.2754 1.67559 15.6993 1.98816 16.0119C2.30072 16.3244 2.72464 16.5 3.16667 16.5H14.8333C15.2754 16.5 15.6993 16.3244 16.0118 16.0119C16.3244 15.6993 16.5 15.2754 16.5 14.8333M1.5 14.8333L7.125 11.0833M16.5 14.8333L10.875 11.0833M7.125 11.0833L1.5 7.33334M7.125 11.0833L8.075 11.7167C8.34888 11.8994 8.67075 11.9969 9 11.9969C9.32925 11.9969 9.65112 11.8994 9.925 11.7167L10.875 11.0833M10.875 11.0833L16.5 7.33334" stroke="#96A7AF" stroke-width="2" stroke-linecap="round" stroke-linejoin="round"/>
</svg>
