<svg width="92" height="66" viewBox="0 0 92 66" fill="none" xmlns="http://www.w3.org/2000/svg">
<path d="M24.0434 38.3723L24.0578 38.5651L24.143 38.7387C24.292 39.0423 24.5306 39.2385 24.714 39.3595C24.9078 39.4874 25.1266 39.5879 25.3434 39.6698C25.7775 39.8339 26.3269 39.9692 26.9454 40.0852C28.1905 40.3185 29.8682 40.5004 31.8119 40.6388C35.7081 40.9162 40.7851 41.0263 45.8595 40.9948C50.9351 40.9632 56.0309 40.79 59.9673 40.4971C61.9324 40.351 63.6286 40.1736 64.8955 39.9653C65.5261 39.8616 66.0774 39.7459 66.5124 39.6141C66.7294 39.5483 66.9413 39.4715 67.1293 39.3785C67.2992 39.2944 67.5401 39.1542 67.7255 38.9217L67.9148 38.6845L67.9403 38.382C68.1602 35.7696 67.7683 33.7385 66.8317 32.1189C65.8974 30.5033 64.4864 29.4111 62.8832 28.5564C61.4262 27.7798 59.7367 27.1633 58.0221 26.5377C57.8711 26.4826 57.7199 26.4274 57.5687 26.3721C55.8464 25.7417 54.0783 25.0747 52.3439 24.1874V24.1817V24.1755V24.1693V24.1632V24.157V24.1509V24.1448V24.1387V24.1327V24.1267V24.1206V24.1147V24.1087V24.1028V24.0968V24.0909V24.0851V24.0792V24.0734V24.0676V24.0618V24.056V24.0502V24.0445V24.0388V24.0331V24.0274V24.0218V24.0161V24.0105V24.0049V23.9994V23.9938V23.9883V23.9828V23.9773V23.9718V23.9663V23.9609V23.9554V23.95V23.9447V23.9393V23.9339V23.9286V23.9233V23.918V23.9127V23.9074V23.9022V23.8969V23.8917V23.8865V23.8813V23.8762V23.871V23.8659V23.8608V23.8556V23.8506V23.8455V23.8404V23.8354V23.8304V23.8253V23.8203V23.8154V23.8104V23.8054V23.8005V23.7956V23.7906V23.7857V23.7809V23.776V23.7711V23.7663V23.7614V23.7566V23.7518V23.747V23.7422V23.7375V23.7327V23.728V23.7232V23.7185V23.7138V23.7091V23.7044V23.6997V23.6951V23.6904V23.6858V23.6811V23.6765V23.6719V23.6673V23.6627V23.6581V23.6536V23.649V23.6445V23.6399V23.6354V23.6309V23.6263V23.6218V23.6173V23.6129V23.6084V23.6039V23.5994V23.595V23.5906V23.5861V23.5817V23.5773V23.5728V23.5684V23.564V23.5597V23.5553V23.5509V23.5465V23.5422V23.5378V23.5334V23.5291V23.5248V23.5204V23.5161V23.5118V23.5075V23.5031V23.4988V23.4945V23.4902V23.4859V23.4817V23.4774V23.4731V23.4688V23.4646V23.4603V23.456V23.4518V23.4475V23.4433V23.439V23.4348V23.4305V23.4263V23.4221V23.4178V23.4136V23.4094V23.4052V23.4009V23.3967V23.3925V23.3883V23.3841V23.3798V23.3756V23.3714V23.3672V23.363V23.3588V23.3546V23.3504V23.3462V23.342V23.3378V23.3335V23.3293V23.3251V23.3209V23.3167V23.3125V23.3083V23.3041V23.2999V23.2957V23.2915V23.2872V23.283V23.2788V23.2746V23.2704V23.2661V23.2619V23.2577V23.2534V23.2492V23.245V23.2407V23.2365V23.2322V23.228V23.2237V23.2195V23.2152V23.211V23.2067V23.2024V23.1981V23.1938V23.1896V23.1853V23.181V23.1767V23.1724V23.1681V23.1637V23.1594V23.1551V23.1508V23.1464V23.1421V23.1377V23.1334V23.129V23.1246V23.1202V23.1159V23.1115V23.1071V23.1027V23.0982V23.0938V23.0894V23.085V23.0805V23.0761V23.0716V23.0671V23.0627V23.0582V23.0537V23.0492V23.0446V23.0401V23.0356V23.0311V23.0265V23.0219V23.0174V23.0128V23.0082V23.0036V22.999V22.9944V22.9897V22.9851V22.9804V22.9758V22.9711V22.9664V22.9617V22.957V22.9523V22.9475V22.9428V22.938V22.9333V22.9285V22.9237V22.9189V22.9141V22.9092V22.9044V22.8995V22.8946V22.8898V22.8849V22.8799V22.875V22.8701V22.8651V22.8602V22.8552V22.8502V22.8452V22.8401V22.8351V22.83V22.8249V22.8199V22.8148V22.8096V22.8045V22.7993V22.7942V22.789V22.7838V22.7786V22.7733V22.7681V22.7628V22.7575V22.7522V22.7469V22.7416V22.7362V22.7309V22.7255V22.7201V22.7146V22.7092V22.7037V22.6983V22.6928V22.6872V22.6817V22.6761V22.6706V22.665V22.6594V22.6537V22.6481V22.6424V22.6367V22.631V22.6253V22.6195V22.6137V22.608V22.6021V22.5963V22.5904V22.5846V22.5787V22.5728V22.5668V22.5608V22.5549V22.5489V22.5428V22.5368V22.5307V22.5246V22.5185V22.5123V22.5062V22.5V22.4938V22.4876V22.4813V22.475V22.4687V22.4624V22.456V22.4496V22.4432V22.4368V22.4304V22.4239V22.4174V22.4109V22.4043V22.403C56.7027 19.1906 57.7612 13.939 56.5298 9.50696C55.2612 4.94128 51.4836 1 46.1046 1C40.6175 1 36.7916 4.91994 35.4965 9.49211C34.2413 13.9236 35.2976 19.1738 39.6144 22.3988V24.2003C38.0183 25.0524 36.3356 25.7104 34.6563 26.3452C34.492 26.4073 34.3276 26.4692 34.163 26.5312C32.4942 27.1597 30.8203 27.7901 29.3559 28.5751C27.7327 29.4451 26.2787 30.5485 25.2941 32.1535C24.3029 33.7692 23.8512 35.7881 24.0434 38.3723Z" fill="#EB2F06" stroke="white" stroke-width="2"/>
<path d="M1.04345 54.3723L1.05779 54.5651L1.14299 54.7387C1.29199 55.0423 1.53057 55.2385 1.71399 55.3595C1.90776 55.4874 2.1266 55.5879 2.34341 55.6698C2.77752 55.8339 3.32689 55.9692 3.94544 56.0852C5.19054 56.3185 6.86821 56.5004 8.8119 56.6388C12.7081 56.9162 17.7851 57.0263 22.8595 56.9948C27.9351 56.9632 33.0309 56.79 36.9673 56.4971C38.9324 56.351 40.6286 56.1736 41.8955 55.9653C42.5261 55.8616 43.0774 55.7459 43.5124 55.6141C43.7294 55.5483 43.9413 55.4715 44.1293 55.3785C44.2992 55.2944 44.5401 55.1542 44.7255 54.9217L44.9148 54.6845L44.9403 54.382C45.1602 51.7696 44.7683 49.7385 43.8317 48.1189C42.8974 46.5033 41.4864 45.4111 39.8832 44.5564C38.4262 43.7798 36.7367 43.1633 35.0221 42.5377C34.8711 42.4826 34.7199 42.4274 34.5687 42.3721C32.8464 41.7417 31.0783 41.0747 29.3439 40.1874V40.1817V40.1755V40.1693V40.1632V40.157V40.1509V40.1448V40.1387V40.1327V40.1267V40.1206V40.1147V40.1087V40.1028V40.0968V40.0909V40.0851V40.0792V40.0734V40.0676V40.0618V40.056V40.0502V40.0445V40.0388V40.0331V40.0274V40.0218V40.0161V40.0105V40.0049V39.9994V39.9938V39.9883V39.9828V39.9773V39.9718V39.9663V39.9609V39.9554V39.95V39.9447V39.9393V39.9339V39.9286V39.9233V39.918V39.9127V39.9074V39.9022V39.8969V39.8917V39.8865V39.8813V39.8762V39.871V39.8659V39.8608V39.8556V39.8506V39.8455V39.8404V39.8354V39.8304V39.8253V39.8203V39.8154V39.8104V39.8054V39.8005V39.7956V39.7906V39.7857V39.7809V39.776V39.7711V39.7663V39.7614V39.7566V39.7518V39.747V39.7422V39.7375V39.7327V39.728V39.7232V39.7185V39.7138V39.7091V39.7044V39.6997V39.6951V39.6904V39.6858V39.6811V39.6765V39.6719V39.6673V39.6627V39.6581V39.6536V39.649V39.6445V39.6399V39.6354V39.6309V39.6263V39.6218V39.6173V39.6129V39.6084V39.6039V39.5994V39.595V39.5906V39.5861V39.5817V39.5773V39.5728V39.5684V39.564V39.5597V39.5553V39.5509V39.5465V39.5422V39.5378V39.5334V39.5291V39.5248V39.5204V39.5161V39.5118V39.5075V39.5031V39.4988V39.4945V39.4902V39.4859V39.4817V39.4774V39.4731V39.4688V39.4646V39.4603V39.456V39.4518V39.4475V39.4433V39.439V39.4348V39.4305V39.4263V39.4221V39.4178V39.4136V39.4094V39.4052V39.4009V39.3967V39.3925V39.3883V39.3841V39.3798V39.3756V39.3714V39.3672V39.363V39.3588V39.3546V39.3504V39.3462V39.342V39.3378V39.3335V39.3293V39.3251V39.3209V39.3167V39.3125V39.3083V39.3041V39.2999V39.2957V39.2915V39.2872V39.283V39.2788V39.2746V39.2704V39.2661V39.2619V39.2577V39.2534V39.2492V39.245V39.2407V39.2365V39.2322V39.228V39.2237V39.2195V39.2152V39.211V39.2067V39.2024V39.1981V39.1938V39.1896V39.1853V39.181V39.1767V39.1724V39.1681V39.1637V39.1594V39.1551V39.1508V39.1464V39.1421V39.1377V39.1334V39.129V39.1246V39.1202V39.1159V39.1115V39.1071V39.1027V39.0982V39.0938V39.0894V39.085V39.0805V39.0761V39.0716V39.0671V39.0627V39.0582V39.0537V39.0492V39.0446V39.0401V39.0356V39.0311V39.0265V39.0219V39.0174V39.0128V39.0082V39.0036V38.999V38.9944V38.9897V38.9851V38.9804V38.9758V38.9711V38.9664V38.9617V38.957V38.9523V38.9475V38.9428V38.938V38.9333V38.9285V38.9237V38.9189V38.9141V38.9092V38.9044V38.8995V38.8946V38.8898V38.8849V38.8799V38.875V38.8701V38.8651V38.8602V38.8552V38.8502V38.8452V38.8401V38.8351V38.83V38.8249V38.8199V38.8148V38.8096V38.8045V38.7993V38.7942V38.789V38.7838V38.7786V38.7733V38.7681V38.7628V38.7575V38.7522V38.7469V38.7416V38.7362V38.7309V38.7255V38.7201V38.7146V38.7092V38.7037V38.6983V38.6928V38.6872V38.6817V38.6761V38.6706V38.665V38.6594V38.6537V38.6481V38.6424V38.6367V38.631V38.6253V38.6195V38.6137V38.608V38.6021V38.5963V38.5904V38.5846V38.5787V38.5728V38.5668V38.5608V38.5549V38.5489V38.5428V38.5368V38.5307V38.5246V38.5185V38.5123V38.5062V38.5V38.4938V38.4876V38.4813V38.475V38.4687V38.4624V38.456V38.4496V38.4432V38.4368V38.4304V38.4239V38.4174V38.4109V38.4043V38.403C33.7027 35.1906 34.7612 29.939 33.5298 25.507C32.2612 20.9413 28.4836 17 23.1046 17C17.6175 17 13.7916 20.9199 12.4965 25.4921C11.2413 29.9236 12.2976 35.1738 16.6144 38.3988V40.2003C15.0183 41.0524 13.3356 41.7104 11.6563 42.3452C11.492 42.4073 11.3276 42.4692 11.163 42.5312C9.49419 43.1597 7.82032 43.7901 6.35591 44.5751C4.73274 45.4451 3.27867 46.5485 2.29406 48.1535C1.30288 49.7692 0.851223 51.7881 1.04345 54.3723Z" fill="#EB2F06" stroke="white" stroke-width="2"/>
<path d="M47.0434 54.3723L47.0578 54.5651L47.143 54.7387C47.292 55.0423 47.5306 55.2385 47.714 55.3595C47.9078 55.4874 48.1266 55.5879 48.3434 55.6698C48.7775 55.8339 49.3269 55.9692 49.9454 56.0852C51.1905 56.3185 52.8682 56.5004 54.8119 56.6388C58.7081 56.9162 63.7851 57.0263 68.8595 56.9948C73.9351 56.9632 79.0309 56.79 82.9673 56.4971C84.9324 56.351 86.6286 56.1736 87.8955 55.9653C88.5261 55.8616 89.0774 55.7459 89.5124 55.6141C89.7294 55.5483 89.9413 55.4715 90.1293 55.3785C90.2992 55.2944 90.5401 55.1542 90.7255 54.9217L90.9148 54.6845L90.9403 54.382C91.1602 51.7696 90.7683 49.7385 89.8317 48.1189C88.8974 46.5033 87.4864 45.4111 85.8832 44.5564C84.4262 43.7798 82.7367 43.1633 81.0221 42.5377C80.8711 42.4826 80.7199 42.4274 80.5687 42.3721C78.8464 41.7417 77.0783 41.0747 75.3439 40.1874V40.1817V40.1755V40.1693V40.1632V40.157V40.1509V40.1448V40.1387V40.1327V40.1267V40.1206V40.1147V40.1087V40.1028V40.0968V40.0909V40.0851V40.0792V40.0734V40.0676V40.0618V40.056V40.0502V40.0445V40.0388V40.0331V40.0274V40.0218V40.0161V40.0105V40.0049V39.9994V39.9938V39.9883V39.9828V39.9773V39.9718V39.9663V39.9609V39.9554V39.95V39.9447V39.9393V39.9339V39.9286V39.9233V39.918V39.9127V39.9074V39.9022V39.8969V39.8917V39.8865V39.8813V39.8762V39.871V39.8659V39.8608V39.8556V39.8506V39.8455V39.8404V39.8354V39.8304V39.8253V39.8203V39.8154V39.8104V39.8054V39.8005V39.7956V39.7906V39.7857V39.7809V39.776V39.7711V39.7663V39.7614V39.7566V39.7518V39.747V39.7422V39.7375V39.7327V39.728V39.7232V39.7185V39.7138V39.7091V39.7044V39.6997V39.6951V39.6904V39.6858V39.6811V39.6765V39.6719V39.6673V39.6627V39.6581V39.6536V39.649V39.6445V39.6399V39.6354V39.6309V39.6263V39.6218V39.6173V39.6129V39.6084V39.6039V39.5994V39.595V39.5906V39.5861V39.5817V39.5773V39.5728V39.5684V39.564V39.5597V39.5553V39.5509V39.5465V39.5422V39.5378V39.5334V39.5291V39.5248V39.5204V39.5161V39.5118V39.5075V39.5031V39.4988V39.4945V39.4902V39.4859V39.4817V39.4774V39.4731V39.4688V39.4646V39.4603V39.456V39.4518V39.4475V39.4433V39.439V39.4348V39.4305V39.4263V39.4221V39.4178V39.4136V39.4094V39.4052V39.4009V39.3967V39.3925V39.3883V39.3841V39.3798V39.3756V39.3714V39.3672V39.363V39.3588V39.3546V39.3504V39.3462V39.342V39.3378V39.3335V39.3293V39.3251V39.3209V39.3167V39.3125V39.3083V39.3041V39.2999V39.2957V39.2915V39.2872V39.283V39.2788V39.2746V39.2704V39.2661V39.2619V39.2577V39.2534V39.2492V39.245V39.2407V39.2365V39.2322V39.228V39.2237V39.2195V39.2152V39.211V39.2067V39.2024V39.1981V39.1938V39.1896V39.1853V39.181V39.1767V39.1724V39.1681V39.1637V39.1594V39.1551V39.1508V39.1464V39.1421V39.1377V39.1334V39.129V39.1246V39.1202V39.1159V39.1115V39.1071V39.1027V39.0982V39.0938V39.0894V39.085V39.0805V39.0761V39.0716V39.0671V39.0627V39.0582V39.0537V39.0492V39.0446V39.0401V39.0356V39.0311V39.0265V39.0219V39.0174V39.0128V39.0082V39.0036V38.999V38.9944V38.9897V38.9851V38.9804V38.9758V38.9711V38.9664V38.9617V38.957V38.9523V38.9475V38.9428V38.938V38.9333V38.9285V38.9237V38.9189V38.9141V38.9092V38.9044V38.8995V38.8946V38.8898V38.8849V38.8799V38.875V38.8701V38.8651V38.8602V38.8552V38.8502V38.8452V38.8401V38.8351V38.83V38.8249V38.8199V38.8148V38.8096V38.8045V38.7993V38.7942V38.789V38.7838V38.7786V38.7733V38.7681V38.7628V38.7575V38.7522V38.7469V38.7416V38.7362V38.7309V38.7255V38.7201V38.7146V38.7092V38.7037V38.6983V38.6928V38.6872V38.6817V38.6761V38.6706V38.665V38.6594V38.6537V38.6481V38.6424V38.6367V38.631V38.6253V38.6195V38.6137V38.608V38.6021V38.5963V38.5904V38.5846V38.5787V38.5728V38.5668V38.5608V38.5549V38.5489V38.5428V38.5368V38.5307V38.5246V38.5185V38.5123V38.5062V38.5V38.4938V38.4876V38.4813V38.475V38.4687V38.4624V38.456V38.4496V38.4432V38.4368V38.4304V38.4239V38.4174V38.4109V38.4043V38.403C79.7027 35.1906 80.7612 29.939 79.5298 25.507C78.2612 20.9413 74.4836 17 69.1046 17C63.6175 17 59.7916 20.9199 58.4965 25.4921C57.2413 29.9236 58.2976 35.1738 62.6144 38.3988V40.2003C61.0183 41.0524 59.3356 41.7104 57.6563 42.3452C57.492 42.4073 57.3276 42.4692 57.163 42.5312C55.4942 43.1597 53.8203 43.7901 52.3559 44.5751C50.7327 45.4451 49.2787 46.5485 48.2941 48.1535C47.3029 49.7692 46.8512 51.7881 47.0434 54.3723Z" fill="#EB2F06" stroke="white" stroke-width="2"/>
<path d="M24.0434 62.3723L24.0578 62.5651L24.143 62.7387C24.292 63.0423 24.5306 63.2385 24.714 63.3595C24.9078 63.4874 25.1266 63.5879 25.3434 63.6698C25.7775 63.8339 26.3269 63.9692 26.9454 64.0852C28.1905 64.3185 29.8682 64.5004 31.8119 64.6388C35.7081 64.9162 40.7851 65.0263 45.8595 64.9948C50.9351 64.9632 56.0309 64.7899 59.9673 64.4971C61.9324 64.351 63.6286 64.1736 64.8955 63.9653C65.5261 63.8616 66.0774 63.7459 66.5124 63.6141C66.7294 63.5483 66.9413 63.4715 67.1293 63.3785C67.2992 63.2944 67.5401 63.1542 67.7255 62.9217L67.9148 62.6845L67.9403 62.382C68.1602 59.7696 67.7683 57.7385 66.8317 56.1189C65.8974 54.5033 64.4864 53.4111 62.8832 52.5564C61.4262 51.7798 59.7367 51.1633 58.0221 50.5377C57.8711 50.4826 57.7199 50.4274 57.5687 50.3721C55.8463 49.7417 54.0783 49.0747 52.3439 48.1874V48.1817V48.1755V48.1693V48.1632V48.157V48.1509V48.1448V48.1387V48.1327V48.1267V48.1206V48.1147V48.1087V48.1028V48.0968V48.0909V48.0851V48.0792V48.0734V48.0676V48.0618V48.056V48.0502V48.0445V48.0388V48.0331V48.0274V48.0218V48.0161V48.0105V48.0049V47.9994V47.9938V47.9883V47.9828V47.9773V47.9718V47.9663V47.9609V47.9554V47.95V47.9447V47.9393V47.9339V47.9286V47.9233V47.918V47.9127V47.9074V47.9022V47.8969V47.8917V47.8865V47.8813V47.8762V47.871V47.8659V47.8608V47.8557V47.8506V47.8455V47.8404V47.8354V47.8304V47.8253V47.8203V47.8154V47.8104V47.8054V47.8005V47.7956V47.7906V47.7857V47.7809V47.776V47.7711V47.7663V47.7614V47.7566V47.7518V47.747V47.7422V47.7375V47.7327V47.728V47.7232V47.7185V47.7138V47.7091V47.7044V47.6997V47.6951V47.6904V47.6858V47.6811V47.6765V47.6719V47.6673V47.6627V47.6581V47.6536V47.649V47.6445V47.6399V47.6354V47.6309V47.6263V47.6218V47.6173V47.6129V47.6084V47.6039V47.5994V47.595V47.5906V47.5861V47.5817V47.5773V47.5728V47.5684V47.564V47.5597V47.5553V47.5509V47.5465V47.5422V47.5378V47.5334V47.5291V47.5248V47.5204V47.5161V47.5118V47.5075V47.5031V47.4988V47.4945V47.4902V47.4859V47.4817V47.4774V47.4731V47.4688V47.4646V47.4603V47.456V47.4518V47.4475V47.4433V47.439V47.4348V47.4305V47.4263V47.4221V47.4178V47.4136V47.4094V47.4052V47.4009V47.3967V47.3925V47.3883V47.3841V47.3798V47.3756V47.3714V47.3672V47.363V47.3588V47.3546V47.3504V47.3462V47.342V47.3378V47.3335V47.3293V47.3251V47.3209V47.3167V47.3125V47.3083V47.3041V47.2999V47.2957V47.2915V47.2872V47.283V47.2788V47.2746V47.2704V47.2661V47.2619V47.2577V47.2534V47.2492V47.245V47.2407V47.2365V47.2322V47.228V47.2237V47.2195V47.2152V47.211V47.2067V47.2024V47.1981V47.1938V47.1896V47.1853V47.181V47.1767V47.1724V47.1681V47.1637V47.1594V47.1551V47.1508V47.1464V47.1421V47.1377V47.1334V47.129V47.1246V47.1202V47.1159V47.1115V47.1071V47.1027V47.0982V47.0938V47.0894V47.085V47.0805V47.0761V47.0716V47.0671V47.0626V47.0582V47.0537V47.0492V47.0446V47.0401V47.0356V47.0311V47.0265V47.0219V47.0174V47.0128V47.0082V47.0036V46.999V46.9944V46.9897V46.9851V46.9804V46.9758V46.9711V46.9664V46.9617V46.957V46.9523V46.9475V46.9428V46.938V46.9333V46.9285V46.9237V46.9189V46.9141V46.9092V46.9044V46.8995V46.8946V46.8898V46.8849V46.8799V46.875V46.8701V46.8651V46.8602V46.8552V46.8502V46.8452V46.8401V46.8351V46.83V46.8249V46.8199V46.8148V46.8096V46.8045V46.7993V46.7942V46.789V46.7838V46.7786V46.7733V46.7681V46.7628V46.7575V46.7522V46.7469V46.7416V46.7362V46.7309V46.7255V46.7201V46.7146V46.7092V46.7037V46.6983V46.6928V46.6872V46.6817V46.6761V46.6706V46.665V46.6594V46.6537V46.6481V46.6424V46.6367V46.631V46.6253V46.6195V46.6137V46.608V46.6021V46.5963V46.5904V46.5846V46.5787V46.5728V46.5668V46.5608V46.5549V46.5489V46.5428V46.5368V46.5307V46.5246V46.5185V46.5123V46.5062V46.5V46.4938V46.4876V46.4813V46.475V46.4687V46.4624V46.456V46.4496V46.4432V46.4368V46.4304V46.4239V46.4174V46.4109V46.4043V46.403C56.7027 43.1906 57.7612 37.939 56.5298 33.507C55.2612 28.9413 51.4836 25 46.1046 25C40.6175 25 36.7916 28.9199 35.4965 33.4921C34.2413 37.9236 35.2976 43.1738 39.6144 46.3988V48.2003C38.0183 49.0524 36.3356 49.7104 34.6563 50.3452C34.4921 50.4072 34.3276 50.4692 34.1631 50.5312C32.4942 51.1597 30.8203 51.7901 29.3559 52.5751C27.7327 53.4451 26.2787 54.5485 25.2941 56.1535C24.3029 57.7692 23.8512 59.7881 24.0434 62.3723Z" fill="#EB2F06" stroke="white" stroke-width="2"/>
</svg>
