<svg width="42" height="42" viewBox="0 0 42 42" fill="none" xmlns="http://www.w3.org/2000/svg">
<path d="M39.9945 19.4774H36.2661C35.5528 12.2274 29.7711 6.44253 22.522 5.72523V2.00567C22.522 1.16495 21.8399 0.48291 20.9992 0.48291C20.1585 0.48291 19.4764 1.16495 19.4764 2.00567V5.72523C12.2273 6.44253 6.44558 12.2274 5.73229 19.4774H2.00552C1.1648 19.4774 0.482758 20.1594 0.482758 21.0002C0.482758 21.8409 1.1648 22.5229 2.00552 22.5229H5.73549C6.4568 29.7649 12.2345 35.5393 19.4772 36.2566V39.9946C19.4772 40.8354 20.1593 41.5174 21 41.5174C21.8407 41.5174 22.5228 40.8354 22.5228 39.9946V36.2566C29.7655 35.5393 35.5432 29.7641 36.2645 22.5229H39.9945C40.8352 22.5229 41.5172 21.8409 41.5172 21.0002C41.5172 20.1594 40.8352 19.4774 39.9945 19.4774ZM33.2959 20.9905C33.2959 27.7708 27.7803 33.2864 21 33.2864C14.2197 33.2864 8.70408 27.7708 8.70408 20.9905C8.70408 14.2102 14.2197 8.69462 21 8.69462C27.7803 8.69462 33.2959 14.2102 33.2959 20.9905Z" fill="#222222"/>
<path d="M21 13.764C17.0088 13.764 13.7621 17.0107 13.7621 21.002C13.7621 24.9932 17.0088 28.2399 21 28.2399C24.9913 28.2399 28.238 24.9932 28.238 21.002C28.238 17.0107 24.9913 13.764 21 13.764ZM21 25.196C18.6878 25.196 16.8068 23.315 16.8068 21.0028C16.8068 18.6906 18.6878 16.8096 21 16.8096C23.3122 16.8096 25.1932 18.6906 25.1932 21.0028C25.1932 23.315 23.3122 25.196 21 25.196Z" fill="#222222"/>
</svg>
