<svg width="20" height="20" viewBox="0 0 20 20" fill="none" xmlns="http://www.w3.org/2000/svg">
<path d="M16.4626 9.22116H15.1467C14.8949 6.66234 12.8543 4.62061 10.2958 4.36744V3.05466C10.2958 2.75793 10.0551 2.51721 9.75832 2.51721C9.4616 2.51721 9.22088 2.75793 9.22088 3.05466V4.36744C6.66234 4.62061 4.62174 6.66234 4.36999 9.22116H3.05466C2.75793 9.22116 2.51721 9.46188 2.51721 9.75861C2.51721 10.0553 2.75793 10.2961 3.05466 10.2961H4.37112C4.6257 12.852 6.66489 14.8901 9.22116 15.1433V16.4626C9.22116 16.7593 9.46188 17 9.75861 17C10.0553 17 10.2961 16.7593 10.2961 16.4626V15.1433C12.8523 14.8901 14.8915 12.8518 15.1461 10.2961H16.4626C16.7593 10.2961 17 10.0553 17 9.75861C17 9.46188 16.7593 9.22116 16.4626 9.22116ZM14.0984 9.75521C14.0984 12.1483 12.1517 14.095 9.75861 14.095C7.36555 14.095 5.41886 12.1483 5.41886 9.75521C5.41886 7.36216 7.36555 5.41547 9.75861 5.41547C12.1517 5.41547 14.0984 7.36216 14.0984 9.75521Z" fill="#96A7AF"/>
<path d="M9.75849 7.20432C8.34981 7.20432 7.20392 8.35021 7.20392 9.75889C7.20392 11.1676 8.34981 12.3135 9.75849 12.3135C11.1672 12.3135 12.3131 11.1676 12.3131 9.75889C12.3131 8.35021 11.1672 7.20432 9.75849 7.20432ZM9.75849 11.2391C8.94242 11.2391 8.27853 10.5752 8.27853 9.75917C8.27853 8.9431 8.94242 8.27921 9.75849 8.27921C10.5746 8.27921 11.2385 8.9431 11.2385 9.75917C11.2385 10.5752 10.5746 11.2391 9.75849 11.2391Z" fill="#96A7AF"/>
</svg>
