<svg width="26" height="18" viewBox="0 0 26 18" fill="none" xmlns="http://www.w3.org/2000/svg">
<path d="M4.25 7.75C5.62891 7.75 6.75 6.62891 6.75 5.25C6.75 3.87109 5.62891 2.75 4.25 2.75C2.87109 2.75 1.75 3.87109 1.75 5.25C1.75 6.62891 2.87109 7.75 4.25 7.75ZM21.75 7.75C23.1289 7.75 24.25 6.62891 24.25 5.25C24.25 3.87109 23.1289 2.75 21.75 2.75C20.3711 2.75 19.25 3.87109 19.25 5.25C19.25 6.62891 20.3711 7.75 21.75 7.75ZM23 9H20.5C19.8125 9 19.1914 9.27734 18.7383 9.72656C20.3125 10.5898 21.4297 12.1484 21.6719 14H24.25C24.9414 14 25.5 13.4414 25.5 12.75V11.5C25.5 10.1211 24.3789 9 23 9ZM13 9C15.418 9 17.375 7.04297 17.375 4.625C17.375 2.20703 15.418 0.25 13 0.25C10.582 0.25 8.625 2.20703 8.625 4.625C8.625 7.04297 10.582 9 13 9ZM16 10.25H15.6758C14.8633 10.6406 13.9609 10.875 13 10.875C12.0391 10.875 11.1406 10.6406 10.3242 10.25H10C7.51562 10.25 5.5 12.2656 5.5 14.75V15.875C5.5 16.9102 6.33984 17.75 7.375 17.75H18.625C19.6602 17.75 20.5 16.9102 20.5 15.875V14.75C20.5 12.2656 18.4844 10.25 16 10.25ZM7.26172 9.72656C6.80859 9.27734 6.1875 9 5.5 9H3C1.62109 9 0.5 10.1211 0.5 11.5V12.75C0.5 13.4414 1.05859 14 1.75 14H4.32422C4.57031 12.1484 5.6875 10.5898 7.26172 9.72656Z" fill="white"/>
</svg>
