<svg width="26" height="18" viewBox="0 0 26 18" fill="none" xmlns="http://www.w3.org/2000/svg">
<path d="M6.05556 4.83329H19.9444V13.1666H6.05556V4.83329ZM23.4167 8.99996C23.4167 10.1506 24.3494 11.0833 25.5 11.0833V15.25C25.5 16.4006 24.5673 17.3333 23.4167 17.3333H2.58333C1.43273 17.3333 0.5 16.4006 0.5 15.25V11.0833C1.65061 11.0833 2.58333 10.1506 2.58333 8.99996C2.58333 7.84935 1.65061 6.91663 0.5 6.91663V2.74996C0.5 1.59935 1.43273 0.666626 2.58333 0.666626H23.4167C24.5673 0.666626 25.5 1.59935 25.5 2.74996V6.91663C24.3494 6.91663 23.4167 7.84935 23.4167 8.99996ZM21.3333 4.48607C21.3333 3.91077 20.867 3.4444 20.2917 3.4444H5.70833C5.13303 3.4444 4.66667 3.91077 4.66667 4.48607V13.5138C4.66667 14.0892 5.13303 14.5555 5.70833 14.5555H20.2917C20.867 14.5555 21.3333 14.0892 21.3333 13.5138V4.48607Z" fill="white"/>
</svg>
