<svg width="19" height="19" viewBox="0 0 19 19" fill="none" xmlns="http://www.w3.org/2000/svg">
<path d="M19 9.05467C19 12.1649 16.4696 14.6953 13.3594 14.6953H5.06673L7.13602 16.7194C7.31322 16.8927 7.31478 17.1774 7.13951 17.3527L6.51322 17.979C6.33932 18.1528 6.05736 18.1528 5.88343 17.979L2.02406 14.1196C1.85016 13.9457 1.85016 13.6637 2.02406 13.4898L5.88343 9.63042C6.05733 9.45653 6.33928 9.45653 6.51322 9.63042L7.13951 10.2567C7.31478 10.432 7.31322 10.7166 7.13602 10.89L5.06673 12.914H13.3594C15.4874 12.914 17.2188 11.1827 17.2188 9.05467C17.2188 8.33282 17.0194 7.65672 16.673 7.0783C16.622 6.99322 16.6009 6.89353 16.613 6.79507C16.6251 6.69661 16.6698 6.60503 16.74 6.53487L17.3854 5.88946C17.5844 5.69048 17.9166 5.72306 18.0716 5.958C18.6581 6.84744 19 7.91181 19 9.05467ZM2.32698 11.031C1.9806 10.4526 1.78125 9.77652 1.78125 9.05467C1.78125 6.92659 3.51255 5.19529 5.64062 5.19529H13.9333L11.864 7.21942C11.6868 7.39273 11.6852 7.67739 11.8605 7.85266L12.4868 8.47895C12.6607 8.65285 12.9426 8.65285 13.1166 8.47895L16.9759 4.61958C17.1498 4.44568 17.1498 4.16373 16.9759 3.9898L13.1166 0.130421C12.9427 -0.0434736 12.6607 -0.0434736 12.4868 0.130421L11.8605 0.756716C11.6852 0.931983 11.6868 1.21661 11.864 1.38995L13.9333 3.41404H5.64062C2.53038 3.41404 0 5.94442 0 9.05467C0 10.1975 0.341852 11.2619 0.928439 12.1513C1.08337 12.3863 1.41565 12.4189 1.61463 12.2199L2.26004 11.5745C2.33017 11.5043 2.37486 11.4127 2.38699 11.3143C2.39911 11.2158 2.37799 11.1161 2.32698 11.031Z" fill="#808E9B"/>
</svg>
