<svg width="20" height="20" viewBox="0 0 20 20" fill="none" xmlns="http://www.w3.org/2000/svg">
<path d="M9.99998 12.5V14.1667V12.5ZM4.99998 17.5H15C15.442 17.5 15.8659 17.3244 16.1785 17.0118C16.4911 16.6993 16.6666 16.2754 16.6666 15.8333V10.8333C16.6666 10.3913 16.4911 9.96738 16.1785 9.65482C15.8659 9.34226 15.442 9.16667 15 9.16667H4.99998C4.55795 9.16667 4.13403 9.34226 3.82147 9.65482C3.50891 9.96738 3.33331 10.3913 3.33331 10.8333V15.8333C3.33331 16.2754 3.50891 16.6993 3.82147 17.0118C4.13403 17.3244 4.55795 17.5 4.99998 17.5ZM13.3333 9.16667V5.83333C13.3333 4.94928 12.9821 4.10143 12.357 3.47631C11.7319 2.85119 10.884 2.5 9.99998 2.5C9.11592 2.5 8.26808 2.85119 7.64296 3.47631C7.01784 4.10143 6.66665 4.94928 6.66665 5.83333V9.16667H13.3333Z" stroke="#96A7AF" stroke-width="2" stroke-linecap="round" stroke-linejoin="round"/>
</svg>
