<svg width="47" height="56" viewBox="0 0 47 56" fill="#fff" xmlns="http://www.w3.org/2000/svg">
<path d="M43.9091 23.4545C43.9091 39.3636 23.4545 53 23.4545 53C23.4545 53 3 39.3636 3 23.4545C3 18.0297 5.15503 12.827 8.991 8.991C12.827 5.15503 18.0297 3 23.4545 3C28.8794 3 34.0821 5.15503 37.9181 8.991C41.7541 12.827 43.9091 18.0297 43.9091 23.4545Z" stroke="#EB2F06" stroke-width="4.54545" stroke-linecap="round" stroke-linejoin="round"/>
<path d="M16.7271 24.1002L16.7426 24.3091L16.8349 24.4972C16.966 24.7642 17.1649 24.9171 17.2769 24.991C17.4 25.0723 17.523 25.1261 17.6183 25.1621C17.8095 25.2344 18.0235 25.2845 18.2251 25.3222C18.6368 25.3994 19.1674 25.4557 19.7521 25.4973C20.9311 25.5813 22.4532 25.6138 23.9633 25.6045C25.4748 25.5951 26.9991 25.5435 28.1851 25.4553C28.7747 25.4114 29.3025 25.357 29.7106 25.2899C29.9115 25.2568 30.1128 25.2161 30.289 25.1627C30.3765 25.1361 30.4837 25.0989 30.592 25.0453C30.6808 25.0014 30.8734 24.8977 31.0347 24.6955L31.2398 24.4384L31.2674 24.1107C31.3418 23.2265 31.2153 22.4542 30.8368 21.7998C30.4609 21.1496 29.9066 20.7384 29.3588 20.4464C28.8766 20.1893 28.325 19.9883 27.8296 19.8078C27.7821 19.7905 27.7351 19.7733 27.6888 19.7564C27.4222 19.6588 27.1627 19.562 26.9093 19.4578C28.0221 18.2833 28.2471 16.659 27.8702 15.3025C27.4259 13.7037 26.0604 12.2121 24.0309 12.2121C21.9792 12.2121 20.5942 13.6858 20.1386 15.2943C19.7525 16.6575 19.9794 18.2879 21.0926 19.4659C20.8618 19.5635 20.6211 19.6563 20.3698 19.7513C20.3207 19.7699 20.2708 19.7887 20.2202 19.8077C19.7363 19.9897 19.1917 20.1946 18.7102 20.4527C18.1627 20.7462 17.6016 21.1553 17.2107 21.7924C16.8127 22.4411 16.661 23.2114 16.7271 24.1002Z" fill="#EB2F06" stroke="white" stroke-width="2.16667"/>
<path d="M9.93167 28.8273L9.94721 29.0362L10.0395 29.2242C10.1706 29.4912 10.3695 29.6442 10.4815 29.718C10.6046 29.7993 10.7276 29.8532 10.8229 29.8892C11.0141 29.9614 11.2281 30.0115 11.4297 30.0493C11.8414 30.1265 12.3719 30.1827 12.9566 30.2244C14.1356 30.3083 15.6578 30.3409 17.1679 30.3315C18.6794 30.3221 20.2037 30.2705 21.3897 30.1823C21.9793 30.1385 22.5071 30.084 22.9151 30.0169C23.1161 29.9839 23.3174 29.9431 23.4936 29.8897C23.5811 29.8632 23.6883 29.8259 23.7966 29.7723C23.8853 29.7284 24.0779 29.6248 24.2393 29.4225L24.4444 29.1655L24.472 28.8378C24.5464 27.9535 24.4199 27.1813 24.0414 26.5268C23.6654 25.8767 23.1112 25.4654 22.5634 25.1734C22.0812 24.9164 21.5295 24.7153 21.0342 24.5348C20.9867 24.5175 20.9397 24.5004 20.8934 24.4834C20.6268 24.3859 20.3673 24.2891 20.1139 24.1849C21.2267 23.0104 21.4517 21.3861 21.0747 20.0295C20.6305 18.4307 19.265 16.9391 17.2355 16.9391C15.1838 16.9391 13.7988 18.4129 13.3432 20.0213C12.957 21.3846 13.184 23.015 14.2972 24.1929C14.0664 24.2905 13.8257 24.3834 13.5744 24.4784C13.5253 24.4969 13.4754 24.5157 13.4248 24.5347C12.9409 24.7168 12.3963 24.9217 11.9148 25.1798C11.3673 25.4732 10.8062 25.8823 10.4153 26.5195C10.0173 27.1682 9.86556 27.9384 9.93167 28.8273Z" fill="#EB2F06" stroke="white" stroke-width="2.16667"/>
<path d="M23.5226 28.8273L23.5382 29.0362L23.6305 29.2242C23.7615 29.4912 23.9605 29.6442 24.0724 29.718C24.1955 29.7993 24.3185 29.8532 24.4138 29.8892C24.605 29.9614 24.8191 30.0115 25.0206 30.0493C25.4324 30.1265 25.9629 30.1827 26.5476 30.2244C27.7266 30.3083 29.2487 30.3409 30.7589 30.3315C32.2703 30.3221 33.7947 30.2705 34.9806 30.1823C35.5702 30.1385 36.098 30.084 36.5061 30.0169C36.707 29.9839 36.9083 29.9431 37.0845 29.8897C37.172 29.8632 37.2792 29.8259 37.3875 29.7723C37.4763 29.7284 37.6689 29.6248 37.8303 29.4225L38.0354 29.1655L38.0629 28.8378C38.1374 27.9535 38.0108 27.1813 37.6324 26.5268C37.2564 25.8767 36.7021 25.4654 36.1543 25.1734C35.6722 24.9164 35.1205 24.7153 34.6252 24.5348C34.5777 24.5175 34.5307 24.5004 34.4843 24.4834C34.2178 24.3859 33.9582 24.2891 33.7048 24.1849C34.8176 23.0104 35.0426 21.3861 34.6657 20.0295C34.2215 18.4307 32.856 16.9391 30.8264 16.9391C28.7747 16.9391 27.3897 18.4129 26.9341 20.0213C26.548 21.3846 26.7749 23.015 27.8882 24.1929C27.6573 24.2905 27.4167 24.3834 27.1654 24.4784C27.1163 24.4969 27.0663 24.5157 27.0158 24.5347C26.5318 24.7168 25.9872 24.9217 25.5057 25.1798C24.9583 25.4732 24.3971 25.8823 24.0062 26.5195C23.6083 27.1682 23.4565 27.9384 23.5226 28.8273Z" fill="#EB2F06" stroke="white" stroke-width="2.16667"/>
<path d="M16.7271 31.191L16.7426 31.3999L16.8349 31.588C16.966 31.855 17.1649 32.0079 17.2769 32.0818C17.4 32.1631 17.523 32.2169 17.6183 32.2529C17.8095 32.3252 18.0235 32.3753 18.2251 32.4131C18.6368 32.4902 19.1674 32.5465 19.7521 32.5881C20.9311 32.6721 22.4532 32.7047 23.9633 32.6953C25.4748 32.6859 26.9991 32.6343 28.1851 32.5461C28.7747 32.5022 29.3025 32.4478 29.7106 32.3807C29.9115 32.3476 30.1128 32.3069 30.289 32.2535C30.3765 32.227 30.4837 32.1897 30.592 32.1361C30.6808 32.0922 30.8734 31.9886 31.0347 31.7863L31.2398 31.5292L31.2674 31.2015C31.3418 30.3173 31.2153 29.5451 30.8368 28.8906C30.4609 28.2404 29.9066 27.8292 29.3588 27.5372C28.8766 27.2802 28.3249 27.0791 27.8296 26.8986C27.7821 26.8813 27.7351 26.8642 27.6888 26.8472C27.4222 26.7496 27.1627 26.6528 26.9093 26.5486C28.0221 25.3741 28.2471 23.7499 27.8701 22.3933C27.4259 20.7945 26.0604 19.3029 24.0309 19.3029C21.9792 19.3029 20.5942 20.7766 20.1386 22.3851C19.7525 23.7484 19.9794 25.3787 21.0926 26.5567C20.8618 26.6543 20.6211 26.7471 20.3698 26.8421C20.3207 26.8607 20.2708 26.8795 20.2202 26.8985C19.7363 27.0806 19.1917 27.2854 18.7102 27.5435C18.1627 27.837 17.6016 28.2461 17.2107 28.8832C16.8127 29.5319 16.661 30.3022 16.7271 31.191Z" fill="#EB2F06" stroke="white" stroke-width="2.16667"/>
</svg>
