<svg width="47" height="56" viewBox="0 0 47 56" fill="none" xmlns="http://www.w3.org/2000/svg">
<g clip-path="url(#clip0_9_31)">
<path d="M43.9091 23.4545C43.9091 39.3636 23.4545 53 23.4545 53C23.4545 53 3 39.3636 3 23.4545C3 18.0297 5.15503 12.827 8.991 8.991C12.827 5.15503 18.0297 3 23.4545 3C28.8794 3 34.0821 5.15503 37.9181 8.991C41.7541 12.827 43.9091 18.0297 43.9091 23.4545Z" fill="white" stroke="#EB2F06" stroke-width="4.54545" stroke-linecap="round" stroke-linejoin="round"/>
<path fill-rule="evenodd" clip-rule="evenodd" d="M15.0174 30.2386C14.7082 25.8991 18.5735 26.0444 21.6919 24.1961V22.8956C18.0401 20.2979 19.81 14 24.0448 14C28.1763 14 29.9782 20.3099 26.2902 22.8956C26.2902 23.5537 26.2902 23.5379 26.2902 24.1961C29.6697 26.1035 33.3323 25.8191 32.9759 30.2386C32.2884 31.1382 15.5462 31.3632 15.0174 30.2386Z" fill="#7F7F7F"/>
</g>
<defs>
<clipPath id="clip0_9_31">
<rect width="47" height="56" fill="white"/>
</clipPath>
</defs>
</svg>
