<svg width="55" height="66" viewBox="0 0 55 66" fill="none" xmlns="http://www.w3.org/2000/svg">
<g filter="url(#filter0_d_918_110)">
<path d="M50 27.9091C50 45.7273 27.5 61 27.5 61C27.5 61 5 45.7273 5 27.9091C5 21.8332 7.37053 16.0062 11.5901 11.7099C15.8097 7.41363 21.5326 5 27.5 5C33.4674 5 39.1903 7.41363 43.4099 11.7099C47.6295 16.0062 50 21.8332 50 27.9091Z" fill="black" stroke="black" stroke-width="4.54545" stroke-linecap="round" stroke-linejoin="round"/>
<path d="M47.9091 28.4545C47.9091 44.3636 27.4545 58 27.4545 58C27.4545 58 7 44.3636 7 28.4545C7 23.0297 9.15503 17.827 12.991 13.991C16.827 10.155 22.0297 8 27.4545 8C32.8794 8 38.0821 10.155 41.9181 13.991C45.7541 17.827 47.9091 23.0297 47.9091 28.4545Z" fill="white" stroke="#A259FF" stroke-width="4.54545" stroke-linecap="round" stroke-linejoin="round"/>
<path d="M20.5556 23.1667H34.4444V31.5H20.5556V23.1667ZM37.9167 27.3333C37.9167 28.4839 38.8494 29.4167 40 29.4167V33.5833C40 34.7339 39.0673 35.6667 37.9167 35.6667H17.0833C15.9327 35.6667 15 34.7339 15 33.5833V29.4167C16.1506 29.4167 17.0833 28.4839 17.0833 27.3333C17.0833 26.1827 16.1506 25.25 15 25.25V21.0833C15 19.9327 15.9327 19 17.0833 19H37.9167C39.0673 19 40 19.9327 40 21.0833V25.25C38.8494 25.25 37.9167 26.1827 37.9167 27.3333ZM35.8333 22.8194C35.8333 22.2441 35.367 21.7778 34.7917 21.7778H20.2083C19.633 21.7778 19.1667 22.2441 19.1667 22.8194V31.8472C19.1667 32.4225 19.633 32.8889 20.2083 32.8889H34.7917C35.367 32.8889 35.8333 32.4225 35.8333 31.8472V22.8194Z" fill="#A259FF"/>
</g>
<defs>
<filter id="filter0_d_918_110" x="0.657846" y="0.657602" width="53.6843" height="64.6848" filterUnits="userSpaceOnUse" color-interpolation-filters="sRGB">
<feFlood flood-opacity="0" result="BackgroundImageFix"/>
<feColorMatrix in="SourceAlpha" type="matrix" values="0 0 0 0 0 0 0 0 0 0 0 0 0 0 0 0 0 0 127 0" result="hardAlpha"/>
<feOffset/>
<feGaussianBlur stdDeviation="1.03472"/>
<feColorMatrix type="matrix" values="0 0 0 0 0 0 0 0 0 0 0 0 0 0 0 0 0 0 0.04 0"/>
<feBlend mode="normal" in2="BackgroundImageFix" result="effect1_dropShadow_918_110"/>
<feBlend mode="normal" in="SourceGraphic" in2="effect1_dropShadow_918_110" result="shape"/>
</filter>
</defs>
</svg>
