<svg width="53" height="60" viewBox="0 0 53 60" fill="none" xmlns="http://www.w3.org/2000/svg">
<path d="M43.9091 27.4545C43.9091 43.3636 23.4545 57 23.4545 57C23.4545 57 3 43.3636 3 27.4545C3 22.0297 5.15503 16.827 8.991 12.991C12.827 9.15503 18.0297 7 23.4545 7C28.8794 7 34.0821 9.15503 37.9181 12.991C41.7541 16.827 43.9091 22.0297 43.9091 27.4545Z" fill="white" stroke="#A259FF" stroke-width="4.54545" stroke-linecap="round" stroke-linejoin="round"/>
<path d="M16.5556 23.1667H30.4444V31.5H16.5556V23.1667ZM33.9167 27.3333C33.9167 28.4839 34.8494 29.4167 36 29.4167V33.5833C36 34.7339 35.0673 35.6667 33.9167 35.6667H13.0833C11.9327 35.6667 11 34.7339 11 33.5833V29.4167C12.1506 29.4167 13.0833 28.4839 13.0833 27.3333C13.0833 26.1827 12.1506 25.25 11 25.25V21.0833C11 19.9327 11.9327 19 13.0833 19H33.9167C35.0673 19 36 19.9327 36 21.0833V25.25C34.8494 25.25 33.9167 26.1827 33.9167 27.3333ZM31.8333 22.8194C31.8333 22.2441 31.367 21.7778 30.7917 21.7778H16.2083C15.633 21.7778 15.1667 22.2441 15.1667 22.8194V31.8472C15.1667 32.4225 15.633 32.8889 16.2083 32.8889H30.7917C31.367 32.8889 31.8333 32.4225 31.8333 31.8472V22.8194Z" fill="#A259FF"/>
<circle cx="42.6273" cy="10.4648" r="8.1391" fill="white"/>
<path d="M51.9375 8.30089C51.7131 8.02431 51.4585 7.71329 51.3938 7.50977C51.3197 7.28225 51.3405 6.88147 51.3604 6.49322C51.3979 5.75741 51.4439 4.84105 50.9011 4.09481C50.3532 3.34126 49.4629 3.1033 48.7459 2.91022C48.3754 2.81003 47.9903 2.70774 47.8055 2.57311C47.625 2.4416 47.4121 2.11284 47.2054 1.79242C46.8005 1.16621 46.2964 0.386571 45.4019 0.0964241C44.6338 -0.151975 43.7174 0.126691 43.0014 0.400139C42.632 0.542081 42.25 0.688198 42.0005 0.688198C41.7511 0.688198 41.3691 0.542081 40.9996 0.401182C40.2836 0.127735 39.3673 -0.151975 38.6002 0.0974677C37.7057 0.387614 37.2016 1.16725 36.7967 1.79347C36.59 2.11179 36.3771 2.4416 36.1965 2.57311C36.0097 2.70879 35.6256 2.81107 35.2541 2.91126C34.5392 3.1033 33.6489 3.34231 33.102 4.09481C32.5582 4.84105 32.6052 5.75741 32.6428 6.49426C32.6626 6.88251 32.6824 7.28434 32.6094 7.51082C32.5426 7.71225 32.2879 8.02431 32.0635 8.30089C31.5897 8.88327 31 9.60655 31 10.5615C31 11.5155 31.5897 12.2398 32.0635 12.8222C32.2879 13.0988 32.5426 13.4098 32.6073 13.6133C32.6814 13.8408 32.6605 14.2416 32.6407 14.6298C32.6031 15.3657 32.5572 16.282 33.0999 17.0283C33.6478 17.7818 34.5381 18.0198 35.2551 18.2128C35.6256 18.313 36.0108 18.4153 36.1955 18.55C36.3761 18.6815 36.589 19.0102 36.7956 19.3306C37.2006 19.9569 37.7047 20.7365 38.5991 21.0266C39.3694 21.2771 40.2847 20.9964 40.9996 20.7229C41.3691 20.581 41.7511 20.4349 42.0005 20.4349C42.25 20.4349 42.632 20.581 43.0014 20.7219C43.5087 20.916 44.0837 21.1352 44.6912 21.1352C44.9396 21.1352 45.1786 21.0987 45.4009 21.0266C46.2953 20.7365 46.7994 19.9569 47.2044 19.3306C47.411 19.0113 47.6239 18.6825 47.8045 18.551C47.9913 18.4153 48.3754 18.312 48.747 18.2128C49.4629 18.0198 50.3532 17.7818 50.899 17.0293C51.4428 16.2831 51.3958 15.3667 51.3583 14.6298C51.3384 14.2416 51.3186 13.8398 51.3917 13.6133C51.4574 13.4119 51.7121 13.0988 51.9365 12.8222C52.4103 12.2398 53 11.5165 53 10.5615C53.001 9.6076 52.4114 8.88327 51.9375 8.30089ZM45.7578 6.5955C46.2191 6.94096 46.312 7.59536 45.9666 8.05562L42.8355 12.2304C42.6539 12.4725 42.3763 12.6239 42.0746 12.6447C42.0496 12.6479 42.0245 12.6489 42.0005 12.6489C41.725 12.6489 41.4588 12.5404 41.2626 12.3431L40.2189 11.2994C39.8109 10.8913 39.8109 10.2317 40.2189 9.82364C40.627 9.41556 41.2866 9.41556 41.6947 9.82364L41.8878 10.0167L44.2966 6.80424C44.6421 6.34293 45.2955 6.25108 45.7578 6.5955ZM42.0005 16.8237C38.5469 16.8237 35.7384 14.0151 35.7384 10.5615C35.7384 7.10795 38.5469 4.29938 42.0005 4.29938C42.5766 4.29938 43.0442 4.76591 43.0442 5.34307C43.0442 5.92023 42.5766 6.38676 42.0005 6.38676C39.6981 6.38676 37.8258 8.25915 37.8258 10.5615C37.8258 12.8639 39.6981 14.7363 42.0005 14.7363C44.3029 14.7363 46.1753 12.8639 46.1753 10.5615C46.1753 9.98437 46.6429 9.51784 47.219 9.51784C47.7951 9.51784 48.2627 9.98437 48.2627 10.5615C48.2627 14.0151 45.4541 16.8237 42.0005 16.8237Z" fill="#1ABCFE"/>
</svg>
