<svg width="53" height="60" viewBox="0 0 53 60" fill="#fff" xmlns="http://www.w3.org/2000/svg">
<path d="M43.9091 23.4545C43.9091 39.3636 23.4545 53 23.4545 53C23.4545 53 3 39.3636 3 23.4545C3 18.0297 5.15503 12.827 8.991 8.991C12.827 5.15503 18.0297 3 23.4545 3C28.8794 3 34.0821 5.15503 37.9181 8.991C41.7541 12.827 43.9091 18.0297 43.9091 23.4545Z" stroke="#EB2F06" stroke-width="4.54545" stroke-linecap="round" stroke-linejoin="round"/>
<path fill-rule="evenodd" clip-rule="evenodd" d="M10.0168 29.2834C9.71901 25.1992 13.4411 25.3359 16.4441 23.5963V22.3723C12.9275 19.9274 14.6318 14 18.7098 14C22.6883 14 24.4235 19.9387 20.8721 22.3723C20.8721 22.9918 20.8721 22.9769 20.8721 23.5963C24.1264 25.3915 27.6533 25.1238 27.3101 29.2834C26.6481 30.1301 10.526 30.3418 10.0168 29.2834Z" fill="#EB2F06"/>
<path d="M18.0202 29.3804L18.0387 29.6331L18.1485 29.8614C18.3081 30.1932 18.553 30.3874 18.6978 30.4848C18.8551 30.5908 19.0143 30.6623 19.1412 30.7112C19.3953 30.8092 19.6838 30.8785 19.9618 30.9316C20.5283 31.0399 21.2625 31.1196 22.0772 31.1788C23.7187 31.2981 25.8405 31.3445 27.9478 31.3311C30.0568 31.3177 32.1824 31.2443 33.8345 31.1189C34.6563 31.0566 35.3883 30.9794 35.9517 30.8849C36.2295 30.8383 36.5031 30.7815 36.7396 30.7084C36.8571 30.672 36.9976 30.622 37.1376 30.5513C37.2546 30.4923 37.4948 30.3591 37.6937 30.1047L37.9394 29.7906L37.9722 29.3931C38.0733 28.1675 37.9003 27.1178 37.3998 26.2349C36.901 25.3549 36.161 24.7901 35.4105 24.3819C34.7481 24.0217 33.9886 23.7392 33.2945 23.4811C33.2287 23.4566 33.1634 23.4323 33.0989 23.4082C32.6264 23.2318 32.1661 23.0558 31.7169 22.8566C33.4107 21.228 33.766 18.8752 33.2344 16.9232C32.6361 14.7261 30.7953 12.6667 28.0431 12.6667C25.2578 12.6667 23.3908 14.7034 22.7775 16.9126C22.2333 18.8728 22.5913 21.2326 24.2827 22.8658C23.8705 23.0544 23.438 23.2256 22.9846 23.4004C22.916 23.4269 22.8465 23.4536 22.7762 23.4805C22.0984 23.7407 21.3483 24.0287 20.6862 24.3908C19.9349 24.8016 19.1836 25.3648 18.6637 26.2293C18.1367 27.1057 17.9307 28.1523 18.0202 29.3804Z" fill="#EB2F06" stroke="white" stroke-width="2.66667"/>
<circle cx="42.6273" cy="10.4648" r="8.1391" fill="white"/>
<path d="M51.9375 8.30089C51.7131 8.02431 51.4585 7.71329 51.3938 7.50977C51.3197 7.28225 51.3405 6.88147 51.3604 6.49322C51.3979 5.75741 51.4439 4.84105 50.9011 4.09481C50.3532 3.34126 49.4629 3.1033 48.7459 2.91022C48.3754 2.81003 47.9903 2.70774 47.8055 2.57311C47.625 2.4416 47.4121 2.11284 47.2054 1.79242C46.8005 1.16621 46.2964 0.386571 45.4019 0.0964241C44.6338 -0.151975 43.7174 0.126691 43.0014 0.400139C42.632 0.542081 42.25 0.688198 42.0005 0.688198C41.7511 0.688198 41.3691 0.542081 40.9996 0.401182C40.2836 0.127735 39.3673 -0.151975 38.6002 0.0974677C37.7057 0.387614 37.2016 1.16725 36.7967 1.79347C36.59 2.11179 36.3771 2.4416 36.1965 2.57311C36.0097 2.70879 35.6256 2.81107 35.2541 2.91126C34.5392 3.1033 33.6489 3.34231 33.102 4.09481C32.5582 4.84105 32.6052 5.75741 32.6428 6.49426C32.6626 6.88251 32.6824 7.28434 32.6094 7.51082C32.5426 7.71225 32.2879 8.02431 32.0635 8.30089C31.5897 8.88327 31 9.60655 31 10.5615C31 11.5155 31.5897 12.2398 32.0635 12.8222C32.2879 13.0988 32.5426 13.4098 32.6073 13.6133C32.6814 13.8408 32.6605 14.2416 32.6407 14.6298C32.6031 15.3657 32.5572 16.282 33.0999 17.0283C33.6478 17.7818 34.5381 18.0198 35.2551 18.2128C35.6256 18.313 36.0108 18.4153 36.1955 18.55C36.3761 18.6815 36.589 19.0102 36.7956 19.3306C37.2006 19.9569 37.7047 20.7365 38.5991 21.0266C39.3694 21.2771 40.2847 20.9964 40.9996 20.7229C41.3691 20.581 41.7511 20.4349 42.0005 20.4349C42.25 20.4349 42.632 20.581 43.0014 20.7219C43.5087 20.916 44.0837 21.1352 44.6912 21.1352C44.9396 21.1352 45.1786 21.0987 45.4009 21.0266C46.2953 20.7365 46.7994 19.9569 47.2044 19.3306C47.411 19.0113 47.6239 18.6825 47.8045 18.551C47.9913 18.4153 48.3754 18.312 48.747 18.2128C49.4629 18.0198 50.3532 17.7818 50.899 17.0293C51.4428 16.2831 51.3958 15.3667 51.3583 14.6298C51.3384 14.2416 51.3186 13.8398 51.3917 13.6133C51.4574 13.4119 51.7121 13.0988 51.9365 12.8222C52.4103 12.2398 53 11.5165 53 10.5615C53.001 9.6076 52.4114 8.88327 51.9375 8.30089ZM45.7578 6.5955C46.2191 6.94096 46.312 7.59536 45.9666 8.05562L42.8355 12.2304C42.6539 12.4725 42.3763 12.6239 42.0746 12.6447C42.0496 12.6479 42.0245 12.6489 42.0005 12.6489C41.725 12.6489 41.4588 12.5404 41.2626 12.3431L40.2189 11.2994C39.8109 10.8913 39.8109 10.2317 40.2189 9.82364C40.627 9.41556 41.2866 9.41556 41.6947 9.82364L41.8878 10.0167L44.2966 6.80424C44.6421 6.34293 45.2955 6.25108 45.7578 6.5955ZM42.0005 16.8237C38.5469 16.8237 35.7384 14.0151 35.7384 10.5615C35.7384 7.10795 38.5469 4.29938 42.0005 4.29938C42.5766 4.29938 43.0442 4.76591 43.0442 5.34307C43.0442 5.92023 42.5766 6.38676 42.0005 6.38676C39.6981 6.38676 37.8258 8.25915 37.8258 10.5615C37.8258 12.8639 39.6981 14.7363 42.0005 14.7363C44.3029 14.7363 46.1753 12.8639 46.1753 10.5615C46.1753 9.98437 46.6429 9.51784 47.219 9.51784C47.7951 9.51784 48.2627 9.98437 48.2627 10.5615C48.2627 14.0151 45.4541 16.8237 42.0005 16.8237Z" fill="#1ABCFE"/>
</svg>
