<svg width="55" height="66" viewBox="0 0 55 66" fill="none" xmlns="http://www.w3.org/2000/svg">
<g clip-path="url(#clip0_6_10)">
<g filter="url(#filter0_d_6_10)">
<path d="M50 27.9091C50 45.7273 27.5 61 27.5 61C27.5 61 5 45.7273 5 27.9091C5 21.8332 7.37053 16.0062 11.5901 11.7099C15.8097 7.41363 21.5326 5 27.5 5C33.4674 5 39.1903 7.41363 43.4099 11.7099C47.6295 16.0062 50 21.8332 50 27.9091Z" fill="black" stroke="black" stroke-width="4.54545" stroke-linecap="round" stroke-linejoin="round"/>
<path d="M47.9091 28.4545C47.9091 44.3636 27.4545 58 27.4545 58C27.4545 58 7 44.3636 7 28.4545C7 23.0297 9.15503 17.827 12.991 13.991C16.827 10.155 22.0297 8 27.4545 8C32.8794 8 38.0821 10.155 41.9181 13.991C45.7541 17.827 47.9091 23.0297 47.9091 28.4545Z" fill="white" stroke="#A259FF" stroke-width="4.54545" stroke-linecap="round" stroke-linejoin="round"/>
<path d="M20.5556 23.1667H34.4444V31.5H20.5556V23.1667ZM37.9167 27.3333C37.9167 28.4839 38.8494 29.4167 40 29.4167V33.5833C40 34.7339 39.0673 35.6667 37.9167 35.6667H17.0833C15.9327 35.6667 15 34.7339 15 33.5833V29.4167C16.1506 29.4167 17.0833 28.4839 17.0833 27.3333C17.0833 26.1827 16.1506 25.25 15 25.25V21.0833C15 19.9327 15.9327 19 17.0833 19H37.9167C39.0673 19 40 19.9327 40 21.0833V25.25C38.8494 25.25 37.9167 26.1827 37.9167 27.3333ZM35.8333 22.8194C35.8333 22.2441 35.367 21.7778 34.7917 21.7778H20.2083C19.633 21.7778 19.1667 22.2441 19.1667 22.8194V31.8472C19.1667 32.4225 19.633 32.8889 20.2083 32.8889H34.7917C35.367 32.8889 35.8333 32.4225 35.8333 31.8472V22.8194Z" fill="#A259FF"/>
</g>
<path d="M44.6273 18.6039C49.1224 18.6039 52.7664 14.9599 52.7664 10.4648C52.7664 5.9697 49.1224 2.3257 44.6273 2.3257C40.1322 2.3257 36.4882 5.9697 36.4882 10.4648C36.4882 14.9599 40.1322 18.6039 44.6273 18.6039Z" fill="white"/>
<path d="M53.9375 8.30089C53.7131 8.02431 53.4585 7.71329 53.3938 7.50977C53.3197 7.28225 53.3405 6.88147 53.3604 6.49322C53.3979 5.75741 53.4439 4.84105 52.9011 4.09481C52.3532 3.34126 51.4629 3.1033 50.7459 2.91022C50.3754 2.81003 49.9903 2.70774 49.8055 2.57311C49.625 2.4416 49.4121 2.11284 49.2054 1.79242C48.8005 1.16621 48.2964 0.386571 47.4019 0.0964242C46.6338 -0.151975 45.7174 0.126691 45.0014 0.400139C44.632 0.542081 44.25 0.688198 44.0005 0.688198C43.7511 0.688198 43.3691 0.542081 42.9996 0.401182C42.2836 0.127735 41.3673 -0.151975 40.6002 0.0974678C39.7057 0.387614 39.2016 1.16725 38.7967 1.79347C38.59 2.11179 38.3771 2.4416 38.1965 2.57311C38.0097 2.70879 37.6256 2.81107 37.2541 2.91126C36.5392 3.1033 35.6489 3.34231 35.102 4.09481C34.5582 4.84105 34.6052 5.75741 34.6428 6.49426C34.6626 6.88251 34.6824 7.28434 34.6094 7.51082C34.5426 7.71225 34.2879 8.02431 34.0635 8.30089C33.5897 8.88327 33 9.60655 33 10.5615C33 11.5155 33.5897 12.2398 34.0635 12.8222C34.2879 13.0988 34.5426 13.4098 34.6073 13.6133C34.6814 13.8408 34.6605 14.2416 34.6407 14.6298C34.6031 15.3657 34.5572 16.282 35.0999 17.0283C35.6478 17.7818 36.5381 18.0198 37.2551 18.2128C37.6256 18.313 38.0108 18.4153 38.1955 18.55C38.3761 18.6815 38.589 19.0102 38.7956 19.3306C39.2006 19.9569 39.7047 20.7365 40.5991 21.0266C41.3694 21.2771 42.2847 20.9964 42.9996 20.7229C43.3691 20.581 43.7511 20.4349 44.0005 20.4349C44.25 20.4349 44.632 20.581 45.0014 20.7219C45.5087 20.916 46.0837 21.1352 46.6912 21.1352C46.9396 21.1352 47.1786 21.0987 47.4009 21.0266C48.2953 20.7365 48.7994 19.9569 49.2044 19.3306C49.411 19.0113 49.6239 18.6825 49.8045 18.551C49.9913 18.4153 50.3754 18.312 50.747 18.2128C51.4629 18.0198 52.3532 17.7818 52.899 17.0293C53.4428 16.2831 53.3958 15.3667 53.3583 14.6298C53.3384 14.2416 53.3186 13.8398 53.3917 13.6133C53.4574 13.4119 53.7121 13.0988 53.9365 12.8222C54.4103 12.2398 55 11.5165 55 10.5615C55.001 9.6076 54.4114 8.88327 53.9375 8.30089ZM47.7578 6.5955C48.2191 6.94096 48.312 7.59536 47.9666 8.05562L44.8355 12.2304C44.6539 12.4725 44.3763 12.6239 44.0746 12.6447C44.0496 12.6479 44.0245 12.6489 44.0005 12.6489C43.725 12.6489 43.4588 12.5404 43.2626 12.3431L42.2189 11.2994C41.8109 10.8913 41.8109 10.2317 42.2189 9.82364C42.627 9.41556 43.2866 9.41556 43.6947 9.82364L43.8878 10.0167L46.2966 6.80424C46.6421 6.34293 47.2955 6.25108 47.7578 6.5955ZM44.0005 16.8237C40.5469 16.8237 37.7384 14.0151 37.7384 10.5615C37.7384 7.10795 40.5469 4.29938 44.0005 4.29938C44.5766 4.29938 45.0442 4.76591 45.0442 5.34307C45.0442 5.92023 44.5766 6.38676 44.0005 6.38676C41.6981 6.38676 39.8258 8.25915 39.8258 10.5615C39.8258 12.8639 41.6981 14.7363 44.0005 14.7363C46.3029 14.7363 48.1753 12.8639 48.1753 10.5615C48.1753 9.98437 48.6429 9.51784 49.219 9.51784C49.7951 9.51784 50.2627 9.98437 50.2627 10.5615C50.2627 14.0151 47.4541 16.8237 44.0005 16.8237Z" fill="#1ABCFE"/>
</g>
<defs>
<filter id="filter0_d_6_10" x="0.65784" y="0.657835" width="53.6843" height="64.6843" filterUnits="userSpaceOnUse" color-interpolation-filters="sRGB">
<feFlood flood-opacity="0" result="BackgroundImageFix"/>
<feColorMatrix in="SourceAlpha" type="matrix" values="0 0 0 0 0 0 0 0 0 0 0 0 0 0 0 0 0 0 127 0" result="hardAlpha"/>
<feOffset/>
<feGaussianBlur stdDeviation="1.03472"/>
<feColorMatrix type="matrix" values="0 0 0 0 0 0 0 0 0 0 0 0 0 0 0 0 0 0 0.04 0"/>
<feBlend mode="normal" in2="BackgroundImageFix" result="effect1_dropShadow_6_10"/>
<feBlend mode="normal" in="SourceGraphic" in2="effect1_dropShadow_6_10" result="shape"/>
</filter>
<clipPath id="clip0_6_10">
<rect width="55" height="66" fill="white"/>
</clipPath>
</defs>
</svg>
