<svg width="55" height="66" viewBox="0 0 55 66" fill="none" xmlns="http://www.w3.org/2000/svg">
<path d="M50 27.9091C50 45.7273 27.5 61 27.5 61C27.5 61 5 45.7273 5 27.9091C5 21.8332 7.37053 16.0062 11.5901 11.7099C15.8097 7.41363 21.5326 5 27.5 5C33.4674 5 39.1903 7.41363 43.4099 11.7099C47.6295 16.0062 50 21.8332 50 27.9091Z" fill="black" stroke="black" stroke-width="4.54545" stroke-linecap="round" stroke-linejoin="round"/>
<path d="M47.9091 28.4545C47.9091 44.3636 27.4545 58 27.4545 58C27.4545 58 7 44.3636 7 28.4545C7 23.0297 9.15503 17.827 12.991 13.991C16.827 10.155 22.0297 8 27.4545 8C32.8794 8 38.0821 10.155 41.9181 13.991C45.7541 17.827 47.9091 23.0297 47.9091 28.4545Z" fill="white" stroke="#EB2F06" stroke-width="4.54545" stroke-linecap="round" stroke-linejoin="round"/>
<path d="M18.75 23.5C20.1289 23.5 21.25 22.3789 21.25 21C21.25 19.6211 20.1289 18.5 18.75 18.5C17.3711 18.5 16.25 19.6211 16.25 21C16.25 22.3789 17.3711 23.5 18.75 23.5ZM36.25 23.5C37.6289 23.5 38.75 22.3789 38.75 21C38.75 19.6211 37.6289 18.5 36.25 18.5C34.8711 18.5 33.75 19.6211 33.75 21C33.75 22.3789 34.8711 23.5 36.25 23.5ZM37.5 24.75H35C34.3125 24.75 33.6914 25.0273 33.2383 25.4766C34.8125 26.3398 35.9297 27.8984 36.1719 29.75H38.75C39.4414 29.75 40 29.1914 40 28.5V27.25C40 25.8711 38.8789 24.75 37.5 24.75ZM27.5 24.75C29.918 24.75 31.875 22.793 31.875 20.375C31.875 17.957 29.918 16 27.5 16C25.082 16 23.125 17.957 23.125 20.375C23.125 22.793 25.082 24.75 27.5 24.75ZM30.5 26H30.1758C29.3633 26.3906 28.4609 26.625 27.5 26.625C26.5391 26.625 25.6406 26.3906 24.8242 26H24.5C22.0156 26 20 28.0156 20 30.5V31.625C20 32.6602 20.8398 33.5 21.875 33.5H33.125C34.1602 33.5 35 32.6602 35 31.625V30.5C35 28.0156 32.9844 26 30.5 26ZM21.7617 25.4766C21.3086 25.0273 20.6875 24.75 20 24.75H17.5C16.1211 24.75 15 25.8711 15 27.25V28.5C15 29.1914 15.5586 29.75 16.25 29.75H18.8242C19.0703 27.8984 20.1875 26.3398 21.7617 25.4766Z" fill="#EB2F06"/>
<path d="M43.6273 19.6039C48.1224 19.6039 51.7664 15.9599 51.7664 11.4648C51.7664 6.9697 48.1224 3.3257 43.6273 3.3257C39.1322 3.3257 35.4882 6.9697 35.4882 11.4648C35.4882 15.9599 39.1322 19.6039 43.6273 19.6039Z" fill="white"/>
<path d="M52.9375 9.30089C52.7131 9.02431 52.4585 8.71329 52.3938 8.50977C52.3197 8.28225 52.3405 7.88147 52.3604 7.49322C52.3979 6.75741 52.4439 5.84105 51.9011 5.09481C51.3532 4.34126 50.4629 4.1033 49.7459 3.91022C49.3754 3.81003 48.9903 3.70774 48.8055 3.57311C48.625 3.4416 48.4121 3.11284 48.2054 2.79242C47.8005 2.16621 47.2964 1.38657 46.4019 1.09642C45.6338 0.848025 44.7174 1.12669 44.0014 1.40014C43.632 1.54208 43.25 1.6882 43.0005 1.6882C42.7511 1.6882 42.3691 1.54208 41.9996 1.40118C41.2836 1.12774 40.3673 0.848025 39.6002 1.09747C38.7057 1.38761 38.2016 2.16725 37.7967 2.79347C37.59 3.11179 37.3771 3.4416 37.1965 3.57311C37.0097 3.70879 36.6256 3.81107 36.2541 3.91126C35.5392 4.1033 34.6489 4.34231 34.102 5.09481C33.5582 5.84105 33.6052 6.75741 33.6428 7.49426C33.6626 7.88251 33.6824 8.28434 33.6094 8.51082C33.5426 8.71225 33.2879 9.02431 33.0635 9.30089C32.5897 9.88327 32 10.6065 32 11.5615C32 12.5155 32.5897 13.2398 33.0635 13.8222C33.2879 14.0988 33.5426 14.4098 33.6073 14.6133C33.6814 14.8408 33.6605 15.2416 33.6407 15.6298C33.6031 16.3657 33.5572 17.282 34.0999 18.0283C34.6478 18.7818 35.5381 19.0198 36.2551 19.2128C36.6256 19.313 37.0108 19.4153 37.1955 19.55C37.3761 19.6815 37.589 20.0102 37.7956 20.3306C38.2006 20.9569 38.7047 21.7365 39.5991 22.0266C40.3694 22.2771 41.2847 21.9964 41.9996 21.7229C42.3691 21.581 42.7511 21.4349 43.0005 21.4349C43.25 21.4349 43.632 21.581 44.0014 21.7219C44.5087 21.916 45.0837 22.1352 45.6912 22.1352C45.9396 22.1352 46.1786 22.0987 46.4009 22.0266C47.2953 21.7365 47.7994 20.9569 48.2044 20.3306C48.411 20.0113 48.6239 19.6825 48.8045 19.551C48.9913 19.4153 49.3754 19.312 49.747 19.2128C50.4629 19.0198 51.3532 18.7818 51.899 18.0293C52.4428 17.2831 52.3958 16.3667 52.3583 15.6298C52.3384 15.2416 52.3186 14.8398 52.3917 14.6133C52.4574 14.4119 52.7121 14.0988 52.9365 13.8222C53.4103 13.2398 54 12.5165 54 11.5615C54.001 10.6076 53.4114 9.88327 52.9375 9.30089ZM46.7578 7.5955C47.2191 7.94096 47.312 8.59536 46.9666 9.05562L43.8355 13.2304C43.6539 13.4725 43.3763 13.6239 43.0746 13.6447C43.0496 13.6479 43.0245 13.6489 43.0005 13.6489C42.725 13.6489 42.4588 13.5404 42.2626 13.3431L41.2189 12.2994C40.8109 11.8913 40.8109 11.2317 41.2189 10.8236C41.627 10.4156 42.2866 10.4156 42.6947 10.8236L42.8878 11.0167L45.2966 7.80424C45.6421 7.34293 46.2955 7.25108 46.7578 7.5955ZM43.0005 17.8237C39.5469 17.8237 36.7384 15.0151 36.7384 11.5615C36.7384 8.10795 39.5469 5.29938 43.0005 5.29938C43.5766 5.29938 44.0442 5.76591 44.0442 6.34307C44.0442 6.92023 43.5766 7.38676 43.0005 7.38676C40.6981 7.38676 38.8258 9.25915 38.8258 11.5615C38.8258 13.8639 40.6981 15.7363 43.0005 15.7363C45.3029 15.7363 47.1753 13.8639 47.1753 11.5615C47.1753 10.9844 47.6429 10.5178 48.219 10.5178C48.7951 10.5178 49.2627 10.9844 49.2627 11.5615C49.2627 15.0151 46.4541 17.8237 43.0005 17.8237Z" fill="#1ABCFE"/>
</svg>
