<svg width="55" height="66" viewBox="0 0 55 66" fill="none" xmlns="http://www.w3.org/2000/svg">
<path d="M50 27.9091C50 45.7273 27.5 61 27.5 61C27.5 61 5 45.7273 5 27.9091C5 21.8332 7.37053 16.0062 11.5901 11.7099C15.8097 7.41363 21.5326 5 27.5 5C33.4674 5 39.1903 7.41363 43.4099 11.7099C47.6295 16.0062 50 21.8332 50 27.9091Z" fill="black" stroke="black" stroke-width="4.54545" stroke-linecap="round" stroke-linejoin="round"/>
<path d="M47.9091 28.4545C47.9091 44.3636 27.4545 58 27.4545 58C27.4545 58 7 44.3636 7 28.4545C7 23.0297 9.15503 17.827 12.991 13.991C16.827 10.155 22.0297 8 27.4545 8C32.8794 8 38.0821 10.155 41.9181 13.991C45.7541 17.827 47.9091 23.0297 47.9091 28.4545Z" fill="white" stroke="#EB2F06" stroke-width="4.54545" stroke-linecap="round" stroke-linejoin="round"/>
<path d="M18.75 23.5C20.1289 23.5 21.25 22.3789 21.25 21C21.25 19.6211 20.1289 18.5 18.75 18.5C17.3711 18.5 16.25 19.6211 16.25 21C16.25 22.3789 17.3711 23.5 18.75 23.5ZM36.25 23.5C37.6289 23.5 38.75 22.3789 38.75 21C38.75 19.6211 37.6289 18.5 36.25 18.5C34.8711 18.5 33.75 19.6211 33.75 21C33.75 22.3789 34.8711 23.5 36.25 23.5ZM37.5 24.75H35C34.3125 24.75 33.6914 25.0273 33.2383 25.4766C34.8125 26.3398 35.9297 27.8984 36.1719 29.75H38.75C39.4414 29.75 40 29.1914 40 28.5V27.25C40 25.8711 38.8789 24.75 37.5 24.75ZM27.5 24.75C29.918 24.75 31.875 22.793 31.875 20.375C31.875 17.957 29.918 16 27.5 16C25.082 16 23.125 17.957 23.125 20.375C23.125 22.793 25.082 24.75 27.5 24.75ZM30.5 26H30.1758C29.3633 26.3906 28.4609 26.625 27.5 26.625C26.5391 26.625 25.6406 26.3906 24.8242 26H24.5C22.0156 26 20 28.0156 20 30.5V31.625C20 32.6602 20.8398 33.5 21.875 33.5H33.125C34.1602 33.5 35 32.6602 35 31.625V30.5C35 28.0156 32.9844 26 30.5 26ZM21.7617 25.4766C21.3086 25.0273 20.6875 24.75 20 24.75H17.5C16.1211 24.75 15 25.8711 15 27.25V28.5C15 29.1914 15.5586 29.75 16.25 29.75H18.8242C19.0703 27.8984 20.1875 26.3398 21.7617 25.4766Z" fill="#EB2F06"/>
</svg>
