<svg width="53" height="60" viewBox="0 0 53 60" fill="#fff" xmlns="http://www.w3.org/2000/svg">
<path d="M43.9091 23.4545C43.9091 39.3636 23.4545 53 23.4545 53C23.4545 53 3 39.3636 3 23.4545C3 18.0297 5.15503 12.827 8.991 8.991C12.827 5.15503 18.0297 3 23.4545 3C28.8794 3 34.0821 5.15503 37.9181 8.991C41.7541 12.827 43.9091 18.0297 43.9091 23.4545Z" stroke="#EB2F06" stroke-width="4.54545" stroke-linecap="round" stroke-linejoin="round"/>
<path d="M16.7271 24.1002L16.7426 24.3091L16.8349 24.4972C16.966 24.7642 17.1649 24.9171 17.2769 24.991C17.4 25.0723 17.523 25.1261 17.6183 25.1621C17.8095 25.2344 18.0235 25.2845 18.2251 25.3222C18.6368 25.3994 19.1674 25.4557 19.7521 25.4973C20.9311 25.5813 22.4532 25.6138 23.9633 25.6045C25.4748 25.5951 26.9991 25.5435 28.1851 25.4553C28.7747 25.4114 29.3025 25.357 29.7106 25.2899C29.9115 25.2568 30.1128 25.2161 30.289 25.1627C30.3765 25.1361 30.4837 25.0989 30.592 25.0453C30.6808 25.0014 30.8734 24.8977 31.0347 24.6955L31.2398 24.4384L31.2674 24.1107C31.3418 23.2265 31.2153 22.4542 30.8368 21.7998C30.4609 21.1496 29.9066 20.7384 29.3588 20.4464C28.8766 20.1893 28.325 19.9883 27.8296 19.8078C27.7821 19.7905 27.7351 19.7733 27.6888 19.7564C27.4222 19.6588 27.1627 19.562 26.9093 19.4578C28.0221 18.2833 28.2471 16.659 27.8702 15.3025C27.4259 13.7037 26.0604 12.2121 24.0309 12.2121C21.9792 12.2121 20.5942 13.6858 20.1386 15.2943C19.7525 16.6575 19.9794 18.2879 21.0926 19.4659C20.8618 19.5635 20.6211 19.6563 20.3698 19.7513C20.3207 19.7699 20.2708 19.7887 20.2202 19.8077C19.7363 19.9897 19.1917 20.1946 18.7102 20.4527C18.1627 20.7462 17.6016 21.1553 17.2107 21.7924C16.8127 22.4411 16.661 23.2114 16.7271 24.1002Z" fill="#EB2F06" stroke="white" stroke-width="2.16667"/>
<path d="M9.93167 28.8273L9.94721 29.0362L10.0395 29.2242C10.1706 29.4912 10.3695 29.6442 10.4815 29.718C10.6046 29.7993 10.7276 29.8532 10.8229 29.8892C11.0141 29.9614 11.2281 30.0115 11.4297 30.0493C11.8414 30.1265 12.3719 30.1827 12.9566 30.2244C14.1356 30.3083 15.6578 30.3409 17.1679 30.3315C18.6794 30.3221 20.2037 30.2705 21.3897 30.1823C21.9793 30.1385 22.5071 30.084 22.9151 30.0169C23.1161 29.9839 23.3174 29.9431 23.4936 29.8897C23.5811 29.8632 23.6883 29.8259 23.7966 29.7723C23.8853 29.7284 24.0779 29.6248 24.2393 29.4225L24.4444 29.1655L24.472 28.8378C24.5464 27.9535 24.4199 27.1813 24.0414 26.5268C23.6654 25.8767 23.1112 25.4654 22.5634 25.1734C22.0812 24.9164 21.5295 24.7153 21.0342 24.5348C20.9867 24.5175 20.9397 24.5004 20.8934 24.4834C20.6268 24.3859 20.3673 24.2891 20.1139 24.1849C21.2267 23.0104 21.4517 21.3861 21.0747 20.0295C20.6305 18.4307 19.265 16.9391 17.2355 16.9391C15.1838 16.9391 13.7988 18.4129 13.3432 20.0213C12.957 21.3846 13.184 23.015 14.2972 24.1929C14.0664 24.2905 13.8257 24.3834 13.5744 24.4784C13.5253 24.4969 13.4754 24.5157 13.4248 24.5347C12.9409 24.7168 12.3963 24.9217 11.9148 25.1798C11.3673 25.4732 10.8062 25.8823 10.4153 26.5195C10.0173 27.1682 9.86556 27.9384 9.93167 28.8273Z" fill="#EB2F06" stroke="white" stroke-width="2.16667"/>
<path d="M23.5226 28.8273L23.5382 29.0362L23.6305 29.2242C23.7615 29.4912 23.9605 29.6442 24.0724 29.718C24.1955 29.7993 24.3185 29.8532 24.4138 29.8892C24.605 29.9614 24.8191 30.0115 25.0206 30.0493C25.4324 30.1265 25.9629 30.1827 26.5476 30.2244C27.7266 30.3083 29.2487 30.3409 30.7589 30.3315C32.2703 30.3221 33.7947 30.2705 34.9806 30.1823C35.5702 30.1385 36.098 30.084 36.5061 30.0169C36.707 29.9839 36.9083 29.9431 37.0845 29.8897C37.172 29.8632 37.2792 29.8259 37.3875 29.7723C37.4763 29.7284 37.6689 29.6248 37.8303 29.4225L38.0354 29.1655L38.0629 28.8378C38.1374 27.9535 38.0108 27.1813 37.6324 26.5268C37.2564 25.8767 36.7021 25.4654 36.1543 25.1734C35.6722 24.9164 35.1205 24.7153 34.6252 24.5348C34.5777 24.5175 34.5307 24.5004 34.4843 24.4834C34.2178 24.3859 33.9582 24.2891 33.7048 24.1849C34.8176 23.0104 35.0426 21.3861 34.6657 20.0295C34.2215 18.4307 32.856 16.9391 30.8264 16.9391C28.7747 16.9391 27.3897 18.4129 26.9341 20.0213C26.548 21.3846 26.7749 23.015 27.8882 24.1929C27.6573 24.2905 27.4167 24.3834 27.1654 24.4784C27.1163 24.4969 27.0663 24.5157 27.0158 24.5347C26.5318 24.7168 25.9872 24.9217 25.5057 25.1798C24.9583 25.4732 24.3971 25.8823 24.0062 26.5195C23.6083 27.1682 23.4565 27.9384 23.5226 28.8273Z" fill="#EB2F06" stroke="white" stroke-width="2.16667"/>
<path d="M16.7271 31.191L16.7426 31.3999L16.8349 31.588C16.966 31.855 17.1649 32.0079 17.2769 32.0818C17.4 32.1631 17.523 32.2169 17.6183 32.2529C17.8095 32.3252 18.0235 32.3753 18.2251 32.4131C18.6368 32.4902 19.1674 32.5465 19.7521 32.5881C20.9311 32.6721 22.4532 32.7047 23.9633 32.6953C25.4748 32.6859 26.9991 32.6343 28.1851 32.5461C28.7747 32.5022 29.3025 32.4478 29.7106 32.3807C29.9115 32.3476 30.1128 32.3069 30.289 32.2535C30.3765 32.227 30.4837 32.1897 30.592 32.1361C30.6808 32.0922 30.8734 31.9886 31.0347 31.7863L31.2398 31.5292L31.2674 31.2015C31.3418 30.3173 31.2153 29.5451 30.8368 28.8906C30.4609 28.2404 29.9066 27.8292 29.3588 27.5372C28.8766 27.2802 28.3249 27.0791 27.8296 26.8986C27.7821 26.8813 27.7351 26.8642 27.6888 26.8472C27.4222 26.7496 27.1627 26.6528 26.9093 26.5486C28.0221 25.3741 28.2471 23.7499 27.8701 22.3933C27.4259 20.7945 26.0604 19.3029 24.0309 19.3029C21.9792 19.3029 20.5942 20.7766 20.1386 22.3851C19.7525 23.7484 19.9794 25.3787 21.0926 26.5567C20.8618 26.6543 20.6211 26.7471 20.3698 26.8421C20.3207 26.8607 20.2708 26.8795 20.2202 26.8985C19.7363 27.0806 19.1917 27.2854 18.7102 27.5435C18.1627 27.837 17.6016 28.2461 17.2107 28.8832C16.8127 29.5319 16.661 30.3022 16.7271 31.191Z" fill="#EB2F06" stroke="white" stroke-width="2.16667"/>
<circle cx="42.6273" cy="10.4648" r="8.1391" fill="white"/>
<path d="M51.9375 8.30089C51.7131 8.02431 51.4585 7.71329 51.3938 7.50977C51.3197 7.28225 51.3405 6.88147 51.3604 6.49322C51.3979 5.75741 51.4439 4.84105 50.9011 4.09481C50.3532 3.34126 49.4629 3.1033 48.7459 2.91022C48.3754 2.81003 47.9903 2.70774 47.8055 2.57311C47.625 2.4416 47.4121 2.11284 47.2054 1.79242C46.8005 1.16621 46.2964 0.386571 45.4019 0.0964241C44.6338 -0.151975 43.7174 0.126691 43.0014 0.400139C42.632 0.542081 42.25 0.688198 42.0005 0.688198C41.7511 0.688198 41.3691 0.542081 40.9996 0.401182C40.2836 0.127735 39.3673 -0.151975 38.6002 0.0974677C37.7057 0.387614 37.2016 1.16725 36.7967 1.79347C36.59 2.11179 36.3771 2.4416 36.1965 2.57311C36.0097 2.70879 35.6256 2.81107 35.2541 2.91126C34.5392 3.1033 33.6489 3.34231 33.102 4.09481C32.5582 4.84105 32.6052 5.75741 32.6428 6.49426C32.6626 6.88251 32.6824 7.28434 32.6094 7.51082C32.5426 7.71225 32.2879 8.02431 32.0635 8.30089C31.5897 8.88327 31 9.60655 31 10.5615C31 11.5155 31.5897 12.2398 32.0635 12.8222C32.2879 13.0988 32.5426 13.4098 32.6073 13.6133C32.6814 13.8408 32.6605 14.2416 32.6407 14.6298C32.6031 15.3657 32.5572 16.282 33.0999 17.0283C33.6478 17.7818 34.5381 18.0198 35.2551 18.2128C35.6256 18.313 36.0108 18.4153 36.1955 18.55C36.3761 18.6815 36.589 19.0102 36.7956 19.3306C37.2006 19.9569 37.7047 20.7365 38.5991 21.0266C39.3694 21.2771 40.2847 20.9964 40.9996 20.7229C41.3691 20.581 41.7511 20.4349 42.0005 20.4349C42.25 20.4349 42.632 20.581 43.0014 20.7219C43.5087 20.916 44.0837 21.1352 44.6912 21.1352C44.9396 21.1352 45.1786 21.0987 45.4009 21.0266C46.2953 20.7365 46.7994 19.9569 47.2044 19.3306C47.411 19.0113 47.6239 18.6825 47.8045 18.551C47.9913 18.4153 48.3754 18.312 48.747 18.2128C49.4629 18.0198 50.3532 17.7818 50.899 17.0293C51.4428 16.2831 51.3958 15.3667 51.3583 14.6298C51.3384 14.2416 51.3186 13.8398 51.3917 13.6133C51.4574 13.4119 51.7121 13.0988 51.9365 12.8222C52.4103 12.2398 53 11.5165 53 10.5615C53.001 9.6076 52.4114 8.88327 51.9375 8.30089ZM45.7578 6.5955C46.2191 6.94096 46.312 7.59536 45.9666 8.05562L42.8355 12.2304C42.6539 12.4725 42.3763 12.6239 42.0746 12.6447C42.0496 12.6479 42.0245 12.6489 42.0005 12.6489C41.725 12.6489 41.4588 12.5404 41.2626 12.3431L40.2189 11.2994C39.8109 10.8913 39.8109 10.2317 40.2189 9.82364C40.627 9.41556 41.2866 9.41556 41.6947 9.82364L41.8878 10.0167L44.2966 6.80424C44.6421 6.34293 45.2955 6.25108 45.7578 6.5955ZM42.0005 16.8237C38.5469 16.8237 35.7384 14.0151 35.7384 10.5615C35.7384 7.10795 38.5469 4.29938 42.0005 4.29938C42.5766 4.29938 43.0442 4.76591 43.0442 5.34307C43.0442 5.92023 42.5766 6.38676 42.0005 6.38676C39.6981 6.38676 37.8258 8.25915 37.8258 10.5615C37.8258 12.8639 39.6981 14.7363 42.0005 14.7363C44.3029 14.7363 46.1753 12.8639 46.1753 10.5615C46.1753 9.98437 46.6429 9.51784 47.219 9.51784C47.7951 9.51784 48.2627 9.98437 48.2627 10.5615C48.2627 14.0151 45.4541 16.8237 42.0005 16.8237Z" fill="#1ABCFE"/>
</svg>
