<svg width="55" height="66" viewBox="0 0 55 66" fill="none" xmlns="http://www.w3.org/2000/svg">
<path d="M47.9091 28.4545C47.9091 44.3636 27.4545 58 27.4545 58C27.4545 58 7 44.3636 7 28.4545C7 23.0297 9.15503 17.827 12.991 13.991C16.827 10.155 22.0297 8 27.4545 8C32.8794 8 38.0821 10.155 41.9181 13.991C45.7541 17.827 47.9091 23.0297 47.9091 28.4545Z" fill="white" stroke="#EB2F06" stroke-width="4.54545" stroke-linecap="round" stroke-linejoin="round"/>
<path fill-rule="evenodd" clip-rule="evenodd" d="M18.0174 32.2386C17.7082 27.8991 21.5735 28.0444 24.6919 26.1961V24.8956C21.0401 22.2979 22.81 16 27.0448 16C31.1763 16 32.9782 22.3099 29.2902 24.8956C29.2902 25.5537 29.2902 25.5379 29.2902 26.1961C32.6697 28.1035 36.3323 27.8191 35.9759 32.2386C35.2884 33.1382 18.5462 33.3632 18.0174 32.2386Z" fill="#7F7F7F"/>
<path d="M42.6273 19.6039C47.1224 19.6039 50.7664 15.9599 50.7664 11.4648C50.7664 6.9697 47.1224 3.3257 42.6273 3.3257C38.1322 3.3257 34.4882 6.9697 34.4882 11.4648C34.4882 15.9599 38.1322 19.6039 42.6273 19.6039Z" fill="white"/>
<path d="M51.9375 9.30089C51.7131 9.02431 51.4585 8.71329 51.3938 8.50977C51.3197 8.28225 51.3405 7.88147 51.3604 7.49322C51.3979 6.75741 51.4439 5.84105 50.9011 5.09481C50.3532 4.34126 49.4629 4.1033 48.7459 3.91022C48.3754 3.81003 47.9903 3.70774 47.8055 3.57311C47.625 3.4416 47.4121 3.11284 47.2054 2.79242C46.8005 2.16621 46.2964 1.38657 45.4019 1.09642C44.6338 0.848025 43.7174 1.12669 43.0014 1.40014C42.632 1.54208 42.25 1.6882 42.0005 1.6882C41.7511 1.6882 41.3691 1.54208 40.9996 1.40118C40.2836 1.12774 39.3673 0.848025 38.6002 1.09747C37.7057 1.38761 37.2016 2.16725 36.7967 2.79347C36.59 3.11179 36.3771 3.4416 36.1965 3.57311C36.0097 3.70879 35.6256 3.81107 35.2541 3.91126C34.5392 4.1033 33.6489 4.34231 33.102 5.09481C32.5582 5.84105 32.6052 6.75741 32.6428 7.49426C32.6626 7.88251 32.6824 8.28434 32.6094 8.51082C32.5426 8.71225 32.2879 9.02431 32.0635 9.30089C31.5897 9.88327 31 10.6065 31 11.5615C31 12.5155 31.5897 13.2398 32.0635 13.8222C32.2879 14.0988 32.5426 14.4098 32.6073 14.6133C32.6814 14.8408 32.6605 15.2416 32.6407 15.6298C32.6031 16.3657 32.5572 17.282 33.0999 18.0283C33.6478 18.7818 34.5381 19.0198 35.2551 19.2128C35.6256 19.313 36.0108 19.4153 36.1955 19.55C36.3761 19.6815 36.589 20.0102 36.7956 20.3306C37.2006 20.9569 37.7047 21.7365 38.5991 22.0266C39.3694 22.2771 40.2847 21.9964 40.9996 21.7229C41.3691 21.581 41.7511 21.4349 42.0005 21.4349C42.25 21.4349 42.632 21.581 43.0014 21.7219C43.5087 21.916 44.0837 22.1352 44.6912 22.1352C44.9396 22.1352 45.1786 22.0987 45.4009 22.0266C46.2953 21.7365 46.7994 20.9569 47.2044 20.3306C47.411 20.0113 47.6239 19.6825 47.8045 19.551C47.9913 19.4153 48.3754 19.312 48.747 19.2128C49.4629 19.0198 50.3532 18.7818 50.899 18.0293C51.4428 17.2831 51.3958 16.3667 51.3583 15.6298C51.3384 15.2416 51.3186 14.8398 51.3917 14.6133C51.4574 14.4119 51.7121 14.0988 51.9365 13.8222C52.4103 13.2398 53 12.5165 53 11.5615C53.001 10.6076 52.4114 9.88327 51.9375 9.30089ZM45.7578 7.5955C46.2191 7.94096 46.312 8.59536 45.9666 9.05562L42.8355 13.2304C42.6539 13.4725 42.3763 13.6239 42.0746 13.6447C42.0496 13.6479 42.0245 13.6489 42.0005 13.6489C41.725 13.6489 41.4588 13.5404 41.2626 13.3431L40.2189 12.2994C39.8109 11.8913 39.8109 11.2317 40.2189 10.8236C40.627 10.4156 41.2866 10.4156 41.6947 10.8236L41.8878 11.0167L44.2966 7.80424C44.6421 7.34293 45.2955 7.25108 45.7578 7.5955ZM42.0005 17.8237C38.5469 17.8237 35.7384 15.0151 35.7384 11.5615C35.7384 8.10795 38.5469 5.29938 42.0005 5.29938C42.5766 5.29938 43.0442 5.76591 43.0442 6.34307C43.0442 6.92023 42.5766 7.38676 42.0005 7.38676C39.6981 7.38676 37.8258 9.25915 37.8258 11.5615C37.8258 13.8639 39.6981 15.7363 42.0005 15.7363C44.3029 15.7363 46.1753 13.8639 46.1753 11.5615C46.1753 10.9844 46.6429 10.5178 47.219 10.5178C47.7951 10.5178 48.2627 10.9844 48.2627 11.5615C48.2627 15.0151 45.4541 17.8237 42.0005 17.8237Z" fill="#1ABCFE"/>
</svg>
