<svg width="55" height="66" viewBox="0 0 55 66" fill="none" xmlns="http://www.w3.org/2000/svg">
<path d="M50 27.9091C50 45.7273 27.5 61 27.5 61C27.5 61 5 45.7273 5 27.9091C5 21.8332 7.37053 16.0062 11.5901 11.7099C15.8097 7.41363 21.5326 5 27.5 5C33.4674 5 39.1903 7.41363 43.4099 11.7099C47.6295 16.0062 50 21.8332 50 27.9091Z" fill="black" stroke="black" stroke-width="4.54545" stroke-linecap="round" stroke-linejoin="round"/>
<path d="M47.9091 28.4545C47.9091 44.3636 27.4545 58 27.4545 58C27.4545 58 7 44.3636 7 28.4545C7 23.0297 9.15503 17.827 12.991 13.991C16.827 10.155 22.0297 8 27.4545 8C32.8794 8 38.0821 10.155 41.9181 13.991C45.7541 17.827 47.9091 23.0297 47.9091 28.4545Z" fill="white" stroke="#EB2F06" stroke-width="4.54545" stroke-linecap="round" stroke-linejoin="round"/>
<path d="M19.8104 26.8881L19.8259 27.097L19.9182 27.2851C20.0493 27.5521 20.2482 27.705 20.3602 27.7789C20.4833 27.8602 20.6063 27.914 20.7016 27.95C20.8928 28.0223 21.1068 28.0724 21.3084 28.1101C21.7201 28.1873 22.2507 28.2436 22.8354 28.2852C24.0144 28.3692 25.5365 28.4017 27.0466 28.3924C28.5581 28.383 30.0824 28.3314 31.2684 28.2432C31.858 28.1993 32.3858 28.1449 32.7939 28.0778C32.9948 28.0447 33.1961 28.004 33.3723 27.9506C33.4598 27.924 33.567 27.8868 33.6753 27.8332C33.7641 27.7893 33.9567 27.6856 34.118 27.4834L34.3231 27.2263L34.3507 26.8986C34.4251 26.0144 34.2986 25.2421 33.9201 24.5877C33.5442 23.9375 32.9899 23.5263 32.4421 23.2343C31.9599 22.9772 31.4083 22.7762 30.9129 22.5957C30.8654 22.5784 30.8184 22.5612 30.7721 22.5443C30.5055 22.4467 30.246 22.3499 29.9926 22.2457C31.1054 21.0712 31.3304 19.4469 30.9535 18.0904C30.5092 16.4916 29.1437 15 27.1142 15C25.0625 15 23.6775 16.4737 23.2219 18.0822C22.8358 19.4454 23.0627 21.0758 24.1759 22.2538C23.9451 22.3514 23.7044 22.4442 23.4531 22.5392C23.404 22.5578 23.3541 22.5766 23.3035 22.5956C22.8196 22.7776 22.275 22.9825 21.7935 23.2406C21.246 23.5341 20.6849 23.9432 20.294 24.5803C19.896 25.229 19.7443 25.9993 19.8104 26.8881Z" fill="#EB2F06" stroke="white" stroke-width="2.16667"/>
<path d="M13.0149 31.6152L13.0305 31.8241L13.1228 32.0121C13.2539 32.2791 13.4528 32.4321 13.5648 32.5059C13.6879 32.5872 13.8109 32.6411 13.9062 32.6771C14.0974 32.7493 14.3114 32.7994 14.513 32.8372C14.9247 32.9144 15.4552 32.9706 16.0399 33.0123C17.2189 33.0962 18.7411 33.1288 20.2512 33.1194C21.7627 33.11 23.287 33.0584 24.473 32.9702C25.0626 32.9264 25.5904 32.8719 25.9984 32.8048C26.1994 32.7718 26.4007 32.731 26.5769 32.6776C26.6644 32.6511 26.7716 32.6138 26.8799 32.5602C26.9686 32.5163 27.1612 32.4127 27.3226 32.2104L27.5277 31.9534L27.5553 31.6257C27.6297 30.7414 27.5032 29.9692 27.1247 29.3147C26.7487 28.6646 26.1945 28.2533 25.6467 27.9613C25.1645 27.7043 24.6128 27.5032 24.1175 27.3227C24.07 27.3054 24.023 27.2883 23.9767 27.2713C23.7101 27.1738 23.4506 27.077 23.1972 26.9728C24.31 25.7983 24.535 24.174 24.158 22.8174C23.7138 21.2186 22.3483 19.727 20.3188 19.727C18.2671 19.727 16.8821 21.2008 16.4265 22.8092C16.0403 24.1725 16.2673 25.8029 17.3805 26.9808C17.1497 27.0784 16.909 27.1713 16.6577 27.2663C16.6086 27.2848 16.5587 27.3036 16.5081 27.3226C16.0242 27.5047 15.4796 27.7096 14.9981 27.9677C14.4506 28.2611 13.8895 28.6702 13.4986 29.3074C13.1006 29.9561 12.9488 30.7263 13.0149 31.6152Z" fill="#EB2F06" stroke="white" stroke-width="2.16667"/>
<path d="M26.6059 31.6152L26.6215 31.8241L26.7138 32.0121C26.8448 32.2791 27.0438 32.4321 27.1557 32.5059C27.2788 32.5872 27.4018 32.6411 27.4971 32.6771C27.6883 32.7493 27.9024 32.7994 28.1039 32.8372C28.5157 32.9144 29.0462 32.9706 29.6309 33.0123C30.8099 33.0962 32.332 33.1288 33.8422 33.1194C35.3536 33.11 36.878 33.0584 38.0639 32.9702C38.6535 32.9264 39.1813 32.8719 39.5894 32.8048C39.7903 32.7718 39.9916 32.731 40.1678 32.6776C40.2553 32.6511 40.3625 32.6138 40.4708 32.5602C40.5596 32.5163 40.7522 32.4127 40.9136 32.2104L41.1187 31.9534L41.1462 31.6257C41.2207 30.7414 41.0941 29.9692 40.7157 29.3147C40.3397 28.6646 39.7854 28.2533 39.2376 27.9613C38.7555 27.7043 38.2038 27.5032 37.7085 27.3227C37.661 27.3054 37.614 27.2883 37.5676 27.2713C37.3011 27.1738 37.0415 27.077 36.7881 26.9728C37.9009 25.7983 38.1259 24.174 37.749 22.8174C37.3048 21.2186 35.9393 19.727 33.9097 19.727C31.858 19.727 30.473 21.2008 30.0174 22.8092C29.6313 24.1725 29.8582 25.8029 30.9715 26.9808C30.7406 27.0784 30.5 27.1713 30.2487 27.2663C30.1996 27.2848 30.1496 27.3036 30.0991 27.3226C29.6151 27.5047 29.0705 27.7096 28.589 27.9677C28.0416 28.2611 27.4804 28.6702 27.0895 29.3074C26.6916 29.9561 26.5398 30.7263 26.6059 31.6152Z" fill="#EB2F06" stroke="white" stroke-width="2.16667"/>
<path d="M19.8104 33.9789L19.8259 34.1878L19.9182 34.3759C20.0493 34.6429 20.2482 34.7958 20.3602 34.8697C20.4833 34.951 20.6063 35.0048 20.7016 35.0408C20.8928 35.1131 21.1068 35.1632 21.3084 35.201C21.7201 35.2781 22.2507 35.3344 22.8354 35.376C24.0144 35.46 25.5365 35.4926 27.0466 35.4832C28.5581 35.4738 30.0824 35.4222 31.2684 35.334C31.858 35.2901 32.3858 35.2357 32.7939 35.1686C32.9948 35.1355 33.1961 35.0948 33.3723 35.0414C33.4598 35.0149 33.567 34.9776 33.6753 34.924C33.7641 34.8801 33.9567 34.7765 34.118 34.5742L34.3231 34.3171L34.3507 33.9894C34.4251 33.1052 34.2986 32.333 33.9201 31.6785C33.5442 31.0283 32.9899 30.6171 32.4421 30.3251C31.9599 30.0681 31.4082 29.867 30.9129 29.6865C30.8654 29.6692 30.8184 29.6521 30.7721 29.6351C30.5055 29.5375 30.246 29.4407 29.9926 29.3365C31.1054 28.162 31.3304 26.5378 30.9534 25.1812C30.5092 23.5824 29.1437 22.0908 27.1142 22.0908C25.0625 22.0908 23.6775 23.5645 23.2219 25.173C22.8358 26.5363 23.0627 28.1666 24.1759 29.3446C23.9451 29.4422 23.7044 29.535 23.4531 29.63C23.404 29.6486 23.3541 29.6674 23.3035 29.6864C22.8196 29.8685 22.275 30.0733 21.7935 30.3314C21.246 30.6249 20.6849 31.034 20.294 31.6711C19.896 32.3198 19.7443 33.0901 19.8104 33.9789Z" fill="#EB2F06" stroke="white" stroke-width="2.16667"/>
</svg>
