<svg width="47" height="56" viewBox="0 0 47 56" fill="none" xmlns="http://www.w3.org/2000/svg">
<path d="M43.9091 23.4545C43.9091 39.3636 23.4545 53 23.4545 53C23.4545 53 3 39.3636 3 23.4545C3 18.0297 5.15503 12.827 8.991 8.991C12.827 5.15503 18.0297 3 23.4545 3C28.8794 3 34.0821 5.15503 37.9181 8.991C41.7541 12.827 43.9091 18.0297 43.9091 23.4545Z" fill="white" stroke="#A259FF" stroke-width="4.54545" stroke-linecap="round" stroke-linejoin="round"/>
<path d="M16.5556 19.1667H30.4444V27.5H16.5556V19.1667ZM33.9167 23.3333C33.9167 24.4839 34.8494 25.4167 36 25.4167V29.5833C36 30.7339 35.0673 31.6667 33.9167 31.6667H13.0833C11.9327 31.6667 11 30.7339 11 29.5833V25.4167C12.1506 25.4167 13.0833 24.4839 13.0833 23.3333C13.0833 22.1827 12.1506 21.25 11 21.25V17.0833C11 15.9327 11.9327 15 13.0833 15H33.9167C35.0673 15 36 15.9327 36 17.0833V21.25C34.8494 21.25 33.9167 22.1827 33.9167 23.3333ZM31.8333 18.8194C31.8333 18.2441 31.367 17.7778 30.7917 17.7778H16.2083C15.633 17.7778 15.1667 18.2441 15.1667 18.8194V27.8472C15.1667 28.4225 15.633 28.8889 16.2083 28.8889H30.7917C31.367 28.8889 31.8333 28.4225 31.8333 27.8472V18.8194Z" fill="#A259FF"/>
</svg>
