<svg width="47" height="56" viewBox="0 0 47 56" fill="#fff" xmlns="http://www.w3.org/2000/svg">
<path d="M43.9091 23.4545C43.9091 39.3636 23.4545 53 23.4545 53C23.4545 53 3 39.3636 3 23.4545C3 18.0297 5.15503 12.827 8.991 8.991C12.827 5.15503 18.0297 3 23.4545 3C28.8794 3 34.0821 5.15503 37.9181 8.991C41.7541 12.827 43.9091 18.0297 43.9091 23.4545Z" stroke="#EB2F06" stroke-width="4.54545" stroke-linecap="round" stroke-linejoin="round"/>
<path d="M14.75 21.5C16.1289 21.5 17.25 20.3789 17.25 19C17.25 17.6211 16.1289 16.5 14.75 16.5C13.3711 16.5 12.25 17.6211 12.25 19C12.25 20.3789 13.3711 21.5 14.75 21.5ZM32.25 21.5C33.6289 21.5 34.75 20.3789 34.75 19C34.75 17.6211 33.6289 16.5 32.25 16.5C30.8711 16.5 29.75 17.6211 29.75 19C29.75 20.3789 30.8711 21.5 32.25 21.5ZM33.5 22.75H31C30.3125 22.75 29.6914 23.0273 29.2383 23.4766C30.8125 24.3398 31.9297 25.8984 32.1719 27.75H34.75C35.4414 27.75 36 27.1914 36 26.5V25.25C36 23.8711 34.8789 22.75 33.5 22.75ZM23.5 22.75C25.918 22.75 27.875 20.793 27.875 18.375C27.875 15.957 25.918 14 23.5 14C21.082 14 19.125 15.957 19.125 18.375C19.125 20.793 21.082 22.75 23.5 22.75ZM26.5 24H26.1758C25.3633 24.3906 24.4609 24.625 23.5 24.625C22.5391 24.625 21.6406 24.3906 20.8242 24H20.5C18.0156 24 16 26.0156 16 28.5V29.625C16 30.6602 16.8398 31.5 17.875 31.5H29.125C30.1602 31.5 31 30.6602 31 29.625V28.5C31 26.0156 28.9844 24 26.5 24ZM17.7617 23.4766C17.3086 23.0273 16.6875 22.75 16 22.75H13.5C12.1211 22.75 11 23.8711 11 25.25V26.5C11 27.1914 11.5586 27.75 12.25 27.75H14.8242C15.0703 25.8984 16.1875 24.3398 17.7617 23.4766Z" fill="#EB2F06"/>
</svg>
