<svg width="55" height="66" viewBox="0 0 55 66" fill="none" xmlns="http://www.w3.org/2000/svg">
<path d="M50 27.9091C50 45.7273 27.5 61 27.5 61C27.5 61 5 45.7273 5 27.9091C5 21.8332 7.37053 16.0062 11.5901 11.7099C15.8097 7.41363 21.5326 5 27.5 5C33.4674 5 39.1903 7.41363 43.4099 11.7099C47.6295 16.0062 50 21.8332 50 27.9091Z" fill="black" stroke="black" stroke-width="4.54545" stroke-linecap="round" stroke-linejoin="round"/>
<path d="M47.9091 28.4545C47.9091 44.3636 27.4545 58 27.4545 58C27.4545 58 7 44.3636 7 28.4545C7 23.0297 9.15503 17.827 12.991 13.991C16.827 10.155 22.0297 8 27.4545 8C32.8794 8 38.0821 10.155 41.9181 13.991C45.7541 17.827 47.9091 23.0297 47.9091 28.4545Z" fill="white" stroke="#EB2F06" stroke-width="4.54545" stroke-linecap="round" stroke-linejoin="round"/>
<path fill-rule="evenodd" clip-rule="evenodd" d="M13.0168 30.6167C12.719 26.5325 16.4411 26.6692 19.4441 24.9296V23.7056C15.9275 21.2607 17.6318 15.3333 21.7098 15.3333C25.6883 15.3333 27.4235 21.272 23.8721 23.7056C23.8721 24.3251 23.8721 24.3102 23.8721 24.9296C27.1264 26.7248 30.6533 26.4571 30.3101 30.6167C29.6481 31.4634 13.526 31.6751 13.0168 30.6167Z" fill="#EB2F06"/>
<path d="M21.0202 30.7137L21.0387 30.9664L21.1485 31.1947C21.3081 31.5265 21.553 31.7207 21.6978 31.8181C21.8551 31.9241 22.0143 31.9956 22.1412 32.0445C22.3953 32.1425 22.6838 32.2118 22.9618 32.2649C23.5283 32.3732 24.2625 32.4529 25.0772 32.5121C26.7187 32.6314 28.8405 32.6778 30.9478 32.6644C33.0568 32.651 35.1824 32.5776 36.8345 32.4522C37.6563 32.3899 38.3883 32.3127 38.9517 32.2182C39.2295 32.1716 39.5031 32.1148 39.7396 32.0417C39.8571 32.0053 39.9976 31.9553 40.1376 31.8846C40.2546 31.8256 40.4948 31.6924 40.6937 31.438L40.9394 31.1239L40.9722 30.7264C41.0733 29.5008 40.9003 28.4511 40.3998 27.5682C39.901 26.6882 39.161 26.1234 38.4105 25.7152C37.7481 25.355 36.9886 25.0725 36.2945 24.8144C36.2287 24.7899 36.1634 24.7656 36.0989 24.7415C35.6264 24.5651 35.1661 24.3891 34.7169 24.1899C36.4107 22.5613 36.766 20.2085 36.2344 18.2565C35.6361 16.0594 33.7953 14 31.0431 14C28.2578 14 26.3908 16.0367 25.7775 18.2459C25.2333 20.2061 25.5913 22.5659 27.2827 24.1991C26.8705 24.3877 26.438 24.5589 25.9846 24.7337C25.916 24.7602 25.8465 24.7869 25.7762 24.8138C25.0984 25.074 24.3483 25.362 23.6862 25.7241C22.9349 26.1349 22.1836 26.6981 21.6637 27.5626C21.1367 28.439 20.9307 29.4856 21.0202 30.7137Z" fill="#EB2F06" stroke="white" stroke-width="2.66667"/>
<path d="M43.6273 19.6039C48.1224 19.6039 51.7664 15.9599 51.7664 11.4648C51.7664 6.9697 48.1224 3.3257 43.6273 3.3257C39.1322 3.3257 35.4882 6.9697 35.4882 11.4648C35.4882 15.9599 39.1322 19.6039 43.6273 19.6039Z" fill="white"/>
<path d="M52.9375 9.30089C52.7131 9.02431 52.4585 8.71329 52.3938 8.50977C52.3197 8.28225 52.3405 7.88147 52.3604 7.49322C52.3979 6.75741 52.4439 5.84105 51.9011 5.09481C51.3532 4.34126 50.4629 4.1033 49.7459 3.91022C49.3754 3.81003 48.9903 3.70774 48.8055 3.57311C48.625 3.4416 48.4121 3.11284 48.2054 2.79242C47.8005 2.16621 47.2964 1.38657 46.4019 1.09642C45.6338 0.848025 44.7174 1.12669 44.0014 1.40014C43.632 1.54208 43.25 1.6882 43.0005 1.6882C42.7511 1.6882 42.3691 1.54208 41.9996 1.40118C41.2836 1.12774 40.3673 0.848025 39.6002 1.09747C38.7057 1.38761 38.2016 2.16725 37.7967 2.79347C37.59 3.11179 37.3771 3.4416 37.1965 3.57311C37.0097 3.70879 36.6256 3.81107 36.2541 3.91126C35.5392 4.1033 34.6489 4.34231 34.102 5.09481C33.5582 5.84105 33.6052 6.75741 33.6428 7.49426C33.6626 7.88251 33.6824 8.28434 33.6094 8.51082C33.5426 8.71225 33.2879 9.02431 33.0635 9.30089C32.5897 9.88327 32 10.6065 32 11.5615C32 12.5155 32.5897 13.2398 33.0635 13.8222C33.2879 14.0988 33.5426 14.4098 33.6073 14.6133C33.6814 14.8408 33.6605 15.2416 33.6407 15.6298C33.6031 16.3657 33.5572 17.282 34.0999 18.0283C34.6478 18.7818 35.5381 19.0198 36.2551 19.2128C36.6256 19.313 37.0108 19.4153 37.1955 19.55C37.3761 19.6815 37.589 20.0102 37.7956 20.3306C38.2006 20.9569 38.7047 21.7365 39.5991 22.0266C40.3694 22.2771 41.2847 21.9964 41.9996 21.7229C42.3691 21.581 42.7511 21.4349 43.0005 21.4349C43.25 21.4349 43.632 21.581 44.0014 21.7219C44.5087 21.916 45.0837 22.1352 45.6912 22.1352C45.9396 22.1352 46.1786 22.0987 46.4009 22.0266C47.2953 21.7365 47.7994 20.9569 48.2044 20.3306C48.411 20.0113 48.6239 19.6825 48.8045 19.551C48.9913 19.4153 49.3754 19.312 49.747 19.2128C50.4629 19.0198 51.3532 18.7818 51.899 18.0293C52.4428 17.2831 52.3958 16.3667 52.3583 15.6298C52.3384 15.2416 52.3186 14.8398 52.3917 14.6133C52.4574 14.4119 52.7121 14.0988 52.9365 13.8222C53.4103 13.2398 54 12.5165 54 11.5615C54.001 10.6076 53.4114 9.88327 52.9375 9.30089ZM46.7578 7.5955C47.2191 7.94096 47.312 8.59536 46.9666 9.05562L43.8355 13.2304C43.6539 13.4725 43.3763 13.6239 43.0746 13.6447C43.0496 13.6479 43.0245 13.6489 43.0005 13.6489C42.725 13.6489 42.4588 13.5404 42.2626 13.3431L41.2189 12.2994C40.8109 11.8913 40.8109 11.2317 41.2189 10.8236C41.627 10.4156 42.2866 10.4156 42.6947 10.8236L42.8878 11.0167L45.2966 7.80424C45.6421 7.34293 46.2955 7.25108 46.7578 7.5955ZM43.0005 17.8237C39.5469 17.8237 36.7384 15.0151 36.7384 11.5615C36.7384 8.10795 39.5469 5.29938 43.0005 5.29938C43.5766 5.29938 44.0442 5.76591 44.0442 6.34307C44.0442 6.92023 43.5766 7.38676 43.0005 7.38676C40.6981 7.38676 38.8258 9.25915 38.8258 11.5615C38.8258 13.8639 40.6981 15.7363 43.0005 15.7363C45.3029 15.7363 47.1753 13.8639 47.1753 11.5615C47.1753 10.9844 47.6429 10.5178 48.219 10.5178C48.7951 10.5178 49.2627 10.9844 49.2627 11.5615C49.2627 15.0151 46.4541 17.8237 43.0005 17.8237Z" fill="#1ABCFE"/>
</svg>
