<svg width="55" height="66" viewBox="0 0 55 66" fill="none" xmlns="http://www.w3.org/2000/svg">
<path d="M50 27.9091C50 45.7273 27.5 61 27.5 61C27.5 61 5 45.7273 5 27.9091C5 21.8332 7.37053 16.0062 11.5901 11.7099C15.8097 7.41363 21.5326 5 27.5 5C33.4674 5 39.1903 7.41363 43.4099 11.7099C47.6295 16.0062 50 21.8332 50 27.9091Z" fill="black" stroke="black" stroke-width="4.54545" stroke-linecap="round" stroke-linejoin="round"/>
<path d="M47.9091 28.4545C47.9091 44.3636 27.4545 58 27.4545 58C27.4545 58 7 44.3636 7 28.4545C7 23.0297 9.15503 17.827 12.991 13.991C16.827 10.155 22.0297 8 27.4545 8C32.8794 8 38.0821 10.155 41.9181 13.991C45.7541 17.827 47.9091 23.0297 47.9091 28.4545Z" fill="white" stroke="#EB2F06" stroke-width="4.54545" stroke-linecap="round" stroke-linejoin="round"/>
<path fill-rule="evenodd" clip-rule="evenodd" d="M13.0168 30.6167C12.719 26.5325 16.4411 26.6692 19.4441 24.9296V23.7056C15.9275 21.2607 17.6318 15.3333 21.7098 15.3333C25.6883 15.3333 27.4235 21.272 23.8721 23.7056C23.8721 24.3251 23.8721 24.3102 23.8721 24.9296C27.1264 26.7248 30.6533 26.4571 30.3101 30.6167C29.6481 31.4634 13.526 31.6751 13.0168 30.6167Z" fill="#EB2F06"/>
<path d="M21.0202 30.7137L21.0387 30.9664L21.1485 31.1947C21.3081 31.5265 21.553 31.7207 21.6978 31.8181C21.8551 31.9241 22.0143 31.9956 22.1412 32.0445C22.3953 32.1425 22.6838 32.2118 22.9618 32.2649C23.5283 32.3732 24.2625 32.4529 25.0772 32.5121C26.7187 32.6314 28.8405 32.6778 30.9478 32.6644C33.0568 32.651 35.1824 32.5776 36.8345 32.4522C37.6563 32.3899 38.3883 32.3127 38.9517 32.2182C39.2295 32.1716 39.5031 32.1148 39.7396 32.0417C39.8571 32.0053 39.9976 31.9553 40.1376 31.8846C40.2546 31.8256 40.4948 31.6924 40.6937 31.438L40.9394 31.1239L40.9722 30.7264C41.0733 29.5008 40.9003 28.4511 40.3998 27.5682C39.901 26.6882 39.161 26.1234 38.4105 25.7152C37.7481 25.355 36.9886 25.0725 36.2945 24.8144C36.2287 24.7899 36.1634 24.7656 36.0989 24.7415C35.6264 24.5651 35.1661 24.3891 34.7169 24.1899C36.4107 22.5613 36.766 20.2085 36.2344 18.2565C35.6361 16.0594 33.7953 14 31.0431 14C28.2578 14 26.3908 16.0367 25.7775 18.2459C25.2333 20.2061 25.5913 22.5659 27.2827 24.1991C26.8705 24.3877 26.438 24.5589 25.9846 24.7337C25.916 24.7602 25.8465 24.7869 25.7762 24.8138C25.0984 25.074 24.3483 25.362 23.6862 25.7241C22.9349 26.1349 22.1836 26.6981 21.6637 27.5626C21.1367 28.439 20.9307 29.4856 21.0202 30.7137Z" fill="#EB2F06" stroke="white" stroke-width="2.66667"/>
</svg>
