<svg width="47" height="56" viewBox="0 0 47 56" fill="#fff" xmlns="http://www.w3.org/2000/svg">
<path d="M43.9091 23.4545C43.9091 39.3636 23.4545 53 23.4545 53C23.4545 53 3 39.3636 3 23.4545C3 18.0297 5.15503 12.827 8.991 8.991C12.827 5.15503 18.0297 3 23.4545 3C28.8794 3 34.0821 5.15503 37.9181 8.991C41.7541 12.827 43.9091 18.0297 43.9091 23.4545Z" stroke="#EB2F06" stroke-width="4.54545" stroke-linecap="round" stroke-linejoin="round"/>
<path fill-rule="evenodd" clip-rule="evenodd" d="M10.0168 29.2834C9.71901 25.1992 13.4411 25.3359 16.4441 23.5963V22.3723C12.9275 19.9274 14.6318 14 18.7098 14C22.6883 14 24.4235 19.9387 20.8721 22.3723C20.8721 22.9918 20.8721 22.9769 20.8721 23.5963C24.1264 25.3915 27.6533 25.1238 27.3101 29.2834C26.6481 30.1301 10.526 30.3418 10.0168 29.2834Z" fill="#EB2F06"/>
<path d="M18.0202 29.3804L18.0387 29.6331L18.1485 29.8614C18.3081 30.1932 18.553 30.3874 18.6978 30.4848C18.8551 30.5908 19.0143 30.6623 19.1412 30.7112C19.3953 30.8092 19.6838 30.8785 19.9618 30.9316C20.5283 31.0399 21.2625 31.1196 22.0772 31.1788C23.7187 31.2981 25.8405 31.3445 27.9478 31.3311C30.0568 31.3177 32.1824 31.2443 33.8345 31.1189C34.6563 31.0566 35.3883 30.9794 35.9517 30.8849C36.2295 30.8383 36.5031 30.7815 36.7396 30.7084C36.8571 30.672 36.9976 30.622 37.1376 30.5513C37.2546 30.4923 37.4948 30.3591 37.6937 30.1047L37.9394 29.7906L37.9722 29.3931C38.0733 28.1675 37.9003 27.1178 37.3998 26.2349C36.901 25.3549 36.161 24.7901 35.4105 24.3819C34.7481 24.0217 33.9886 23.7392 33.2945 23.4811C33.2287 23.4566 33.1634 23.4323 33.0989 23.4082C32.6264 23.2318 32.1661 23.0558 31.7169 22.8566C33.4107 21.228 33.766 18.8752 33.2344 16.9232C32.6361 14.7261 30.7953 12.6667 28.0431 12.6667C25.2578 12.6667 23.3908 14.7034 22.7775 16.9126C22.2333 18.8728 22.5913 21.2326 24.2827 22.8658C23.8705 23.0544 23.438 23.2256 22.9846 23.4004C22.916 23.4269 22.8465 23.4536 22.7762 23.4805C22.0984 23.7407 21.3483 24.0287 20.6862 24.3908C19.9349 24.8016 19.1836 25.3648 18.6637 26.2293C18.1367 27.1057 17.9307 28.1523 18.0202 29.3804Z" fill="#EB2F06" stroke="white" stroke-width="2.66667"/>
</svg>
