<svg width="64" height="64" viewBox="0 0 64 64" fill="none" xmlns="http://www.w3.org/2000/svg">
<circle opacity="0.1" cx="32" cy="32" r="32" fill="#16B83A"/>
<g filter="url(#filter0_d_918_119)">
<path d="M46.0094 30.747C47.1227 30.6641 48 29.8886 48 28.9333C48 27.921 47.0203 27.101 45.8136 27.101C45.0344 27.101 44.3566 27.445 43.9693 27.958C43.4016 26.2842 42.4811 24.4074 41.8854 23.2312C41.5588 22.5844 40.6957 21.8796 39.9819 21.7185C38.5856 21.41 36.0414 21 32.2497 21C28.4879 21 25.9901 21.3964 24.6374 21.7185C23.9221 21.8796 22.9563 22.5123 22.6141 23.1573C21.9562 24.3672 21.342 26.1486 20.8893 27.6046C20.4898 27.1839 19.8784 26.9087 19.1864 26.9087C17.9782 26.9087 17 27.7288 17 28.7392C17 29.6163 17.7356 30.3456 18.7167 30.5271C18.166 30.9001 17.7636 31.4683 17.5598 31.9827C17.2768 32.6586 17.1119 33.8333 17.1119 34.5522V37.6805C17.1119 38.0185 17.2921 38.3546 17.5551 38.6218C17.3996 38.7646 17.3062 38.9518 17.3062 39.1839C17.3062 39.7568 17.6622 40.1377 18.1973 40.1377C18.7338 40.1377 19.1054 40.6521 19.1054 41.3724V42.8406C19.1054 43.6485 20.9046 44 22.1378 44C23.3725 44 25.0537 43.3981 25.0537 42.5903V41.3279C25.0537 40.6385 25.7954 40.0656 26.5249 40.0796L38.1976 40.1241C38.927 40.1241 39.5053 40.7106 39.4915 41.4309C39.4759 42.1049 39.4759 42.7962 39.4759 42.7962C39.4759 43.5147 41.4542 44 42.6733 44C43.9065 44 45.572 43.1631 45.572 42.4443V40.1377C45.572 39.9763 46.0337 39.9627 46.5099 39.9903C47.0603 40.0057 47.5209 39.7568 47.5361 39.1839C47.5438 38.8966 47.4024 38.677 47.1736 38.5267C47.4068 38.2764 47.5655 37.9801 47.5655 37.6805V33.3487C47.5659 31.9634 46.7435 31.1846 46.0094 30.747ZM21.3667 37.0341C20.1007 37.0341 19.0604 36.0204 19.0604 34.7581C19.0604 33.5094 20.1007 32.4821 21.3667 32.4821C22.6435 32.4821 23.6697 33.5094 23.6697 34.7581C23.67 36.0204 22.6435 37.0341 21.3667 37.0341ZM32.4797 28.7601C29.8453 28.7001 24.0413 29.5155 22.9871 29.7659C22.2871 29.9424 21.9003 29.546 22.124 28.8705L23.5952 24.5089C23.8331 23.8195 24.5782 23.4077 25.292 23.2312C27.522 22.7322 32.5033 21.9395 39.1653 23.1143C39.8791 23.2312 40.6659 23.9067 40.9336 24.5807L42.6286 28.9882C42.8821 29.6626 42.5399 30.0295 41.8262 29.8391C41.201 29.6629 35.1143 28.8182 32.4797 28.7601ZM43.4917 37.1661C42.2134 37.1661 41.1868 36.1388 41.1868 34.8905C41.1868 33.6264 42.2134 32.6144 43.4917 32.6144C44.77 32.6144 45.7965 33.6264 45.7965 34.8905C45.7965 36.1388 44.77 37.1661 43.4917 37.1661Z" fill="#16B83A"/>
</g>
<defs>
<filter id="filter0_d_918_119" x="12.3171" y="17.0976" width="40.3659" height="32.3659" filterUnits="userSpaceOnUse" color-interpolation-filters="sRGB">
<feFlood flood-opacity="0" result="BackgroundImageFix"/>
<feColorMatrix in="SourceAlpha" type="matrix" values="0 0 0 0 0 0 0 0 0 0 0 0 0 0 0 0 0 0 127 0" result="hardAlpha"/>
<feOffset dy="0.780488"/>
<feGaussianBlur stdDeviation="2.34146"/>
<feColorMatrix type="matrix" values="0 0 0 0 0 0 0 0 0 0 0 0 0 0 0 0 0 0 0.15 0"/>
<feBlend mode="normal" in2="BackgroundImageFix" result="effect1_dropShadow_918_119"/>
<feBlend mode="normal" in="SourceGraphic" in2="effect1_dropShadow_918_119" result="shape"/>
</filter>
</defs>
</svg>
