<svg width="41" height="33" viewBox="0 0 41 33" fill="none" xmlns="http://www.w3.org/2000/svg">
<g filter="url(#filter0_d_1_623)">
<path d="M34.0093 13.7469C35.1227 13.6641 36 12.8885 36 11.9333C36 10.921 35.0203 10.101 33.8136 10.101C33.0344 10.101 32.3565 10.445 31.9693 10.9579C31.4016 9.28418 30.4811 7.40739 29.8853 6.23117C29.5588 5.58441 28.6957 4.87954 27.9819 4.71847C26.5855 4.40998 24.0413 3.99997 20.2497 3.99997C16.4878 3.99997 13.9901 4.39635 12.6374 4.71847C11.9221 4.87954 10.9562 5.51231 10.614 6.15727C9.95619 7.36721 9.34193 9.14859 8.88932 10.6046C8.48974 10.1838 7.87839 9.9087 7.18639 9.9087C5.97821 9.9087 4.99997 10.7287 4.99997 11.7392C4.99997 12.6163 5.73556 13.3455 6.7167 13.527C6.16601 13.9001 5.76353 14.4683 5.55974 14.9827C5.27677 15.6585 5.11185 16.8333 5.11185 17.5522V20.6805C5.11185 21.0184 5.29202 21.3545 5.55502 21.6218C5.39955 21.7645 5.30619 21.9518 5.30619 22.1839C5.30619 22.7567 5.66218 23.1377 6.19725 23.1377C6.73378 23.1377 7.10538 23.6521 7.10538 24.3724V25.8406C7.10538 26.6484 8.90458 27 10.1378 27C11.3725 27 13.0536 26.398 13.0536 25.5902V24.3279C13.0536 23.6385 13.7954 23.0656 14.5248 23.0796L26.1976 23.1241C26.927 23.1241 27.5053 23.7106 27.4915 24.4309C27.4759 25.1049 27.4759 25.7961 27.4759 25.7961C27.4759 26.5146 29.4542 27 30.6732 27C31.9065 27 33.572 26.1631 33.572 25.4442V23.1377C33.572 22.9763 34.0337 22.9626 34.5099 22.9903C35.0602 23.0057 35.5208 22.7567 35.5361 22.1839C35.5437 21.8966 35.4024 21.677 35.1736 21.5267C35.4068 21.2763 35.5655 20.98 35.5655 20.6805V16.3487C35.5659 14.9633 34.7435 14.1846 34.0093 13.7469ZM9.36663 20.0341C8.1007 20.0341 7.06034 19.0204 7.06034 17.7581C7.06034 16.5094 8.1007 15.482 9.36663 15.482C10.6435 15.482 11.6697 16.5094 11.6697 17.7581C11.67 19.0204 10.6435 20.0341 9.36663 20.0341ZM20.4796 11.76C17.8453 11.7001 12.0413 12.5155 10.9871 12.7659C10.2871 12.9423 9.90025 12.546 10.124 11.8705L11.5952 7.50891C11.8331 6.81946 12.5782 6.40766 13.2919 6.23117C15.522 5.7322 20.5032 4.93944 27.1653 6.11423C27.8791 6.23117 28.6659 6.90663 28.9336 7.58065L30.6285 11.9882C30.8821 12.6625 30.5399 13.0295 29.8261 12.839C29.201 12.6629 23.1143 11.8181 20.4796 11.76ZM31.4916 20.1661C30.2134 20.1661 29.1868 19.1388 29.1868 17.8904C29.1868 16.6263 30.2134 15.6144 31.4916 15.6144C32.7699 15.6144 33.7965 16.6263 33.7965 17.8904C33.7965 19.1388 32.7699 20.1661 31.4916 20.1661Z" fill="#FA983A"/>
</g>
<defs>
<filter id="filter0_d_1_623" x="0.317043" y="0.0975306" width="40.3659" height="32.3659" filterUnits="userSpaceOnUse" color-interpolation-filters="sRGB">
<feFlood flood-opacity="0" result="BackgroundImageFix"/>
<feColorMatrix in="SourceAlpha" type="matrix" values="0 0 0 0 0 0 0 0 0 0 0 0 0 0 0 0 0 0 127 0" result="hardAlpha"/>
<feOffset dy="0.780488"/>
<feGaussianBlur stdDeviation="2.34146"/>
<feColorMatrix type="matrix" values="0 0 0 0 0 0 0 0 0 0 0 0 0 0 0 0 0 0 0.15 0"/>
<feBlend mode="normal" in2="BackgroundImageFix" result="effect1_dropShadow_1_623"/>
<feBlend mode="normal" in="SourceGraphic" in2="effect1_dropShadow_1_623" result="shape"/>
</filter>
</defs>
</svg>
