<svg width="18" height="20" viewBox="0 0 18 20" fill="none" xmlns="http://www.w3.org/2000/svg">
<path d="M1.32185 4.88135H3.0281H16.6781" stroke="#EB2F06" stroke-width="2" stroke-linecap="round" stroke-linejoin="round"/>
<path d="M14.9719 4.88125V16.825C14.9719 17.2775 14.7921 17.7115 14.4721 18.0315C14.1521 18.3515 13.7181 18.5312 13.2656 18.5312H4.73436C4.28183 18.5312 3.84784 18.3515 3.52786 18.0315C3.20787 17.7115 3.02811 17.2775 3.02811 16.825V4.88125M5.58748 4.88125V3.175C5.58748 2.72247 5.76725 2.28848 6.08723 1.9685C6.40722 1.64852 6.84121 1.46875 7.29373 1.46875H10.7062C11.1588 1.46875 11.5927 1.64852 11.9127 1.9685C12.2327 2.28848 12.4125 2.72247 12.4125 3.175V4.88125" stroke="#EB2F06" stroke-width="2" stroke-linecap="round" stroke-linejoin="round"/>
</svg>
