<svg width="31" height="32" viewBox="0 0 31 32" fill="none" xmlns="http://www.w3.org/2000/svg">
<path d="M22.5556 17.4001L19.0556 25.8C18.589 27.2 17.3756 30 16.2556 30C15.1357 30 13.4557 27.6667 12.7557 26.5L12.7557 20.2001L5.75571 20.2001C4.07572 20.2001 2.7224 18.8001 2.25573 18.1001C2.7224 14.6001 3.79572 7.04015 4.35572 4.80016C4.91571 2.56018 5.52238 2.00018 5.75571 2.00018L22.5556 2.00018L22.5556 17.4001Z" fill="#EB2F06"/>
<path d="M12.7556 20.2001L12.7556 25.8C12.7556 26.9139 13.1981 27.9822 13.9858 28.7699C14.7734 29.5575 15.8417 30 16.9556 30L22.5556 17.4001L22.5556 2.00018L6.76368 2.00018C6.08843 1.99255 5.43317 2.22921 4.91863 2.66657C4.40409 3.10392 4.06495 3.7125 3.9637 4.38017L2.03172 16.9801C1.97081 17.3814 1.99787 17.7911 2.11104 18.1809C2.22421 18.5707 2.42077 18.9313 2.68711 19.2376C2.95345 19.5438 3.2832 19.7886 3.65351 19.9548C4.02382 20.121 4.42583 20.2047 4.8317 20.2001L12.7556 20.2001ZM22.5556 2.00018L26.7556 2.00018C27.4982 2.00018 28.2103 2.29518 28.7354 2.82028C29.2605 3.34537 29.5555 4.05756 29.5555 4.80016L29.5555 14.6001C29.5555 15.3427 29.2605 16.0549 28.7354 16.58C28.2103 17.1051 27.4982 17.4001 26.7556 17.4001L22.5556 17.4001" fill="#EB2F06"/>
<path d="M22.5556 17.4001L16.9556 30C15.8417 30 14.7734 29.5575 13.9858 28.7699C13.1981 27.9822 12.7556 26.9139 12.7556 25.8L12.7556 20.2001L4.8317 20.2001C4.42583 20.2047 4.02382 20.121 3.65351 19.9548C3.2832 19.7886 2.95345 19.5438 2.68711 19.2376C2.42077 18.9313 2.22421 18.5707 2.11104 18.1809C1.99787 17.7911 1.97081 17.3814 2.03172 16.9801L3.9637 4.38017C4.06495 3.7125 4.40409 3.10392 4.91863 2.66657C5.43317 2.22921 6.08843 1.99255 6.76368 2.00018L22.5556 2.00018M22.5556 17.4001L22.5556 2.00018M22.5556 17.4001L26.7556 17.4001C27.4982 17.4001 28.2103 17.1051 28.7354 16.58C29.2605 16.0549 29.5555 15.3427 29.5555 14.6001L29.5555 4.80016C29.5555 4.05756 29.2605 3.34537 28.7354 2.82028C28.2103 2.29518 27.4982 2.00018 26.7556 2.00018L22.5556 2.00018" stroke="#02263D" stroke-width="2.79998" stroke-linecap="round" stroke-linejoin="round"/>
</svg>
