<svg width="31" height="32" viewBox="0 0 31 32" fill="none" xmlns="http://www.w3.org/2000/svg">
<path d="M18.7999 11.7999V6.19997C18.7999 5.08607 18.3574 4.01779 17.5697 3.23014C16.7821 2.4425 15.7138 2 14.5999 2L8.99996 14.5999V29.9998H24.7919C25.4671 30.0075 26.1224 29.7708 26.6369 29.3334C27.1514 28.8961 27.4906 28.2875 27.5918 27.6198L29.5238 15.0199C29.5847 14.6186 29.5577 14.2089 29.4445 13.8191C29.3313 13.4293 29.1348 13.0687 28.8684 12.7625C28.6021 12.4562 28.2723 12.2114 27.902 12.0452C27.5317 11.879 27.1297 11.7953 26.7238 11.7999H18.7999ZM8.99996 29.9998H4.79998C4.05738 29.9998 3.34519 29.7048 2.8201 29.1797C2.295 28.6546 2 27.9424 2 27.1998V17.3999C2 16.6573 2.295 15.9451 2.8201 15.42C3.34519 14.8949 4.05738 14.5999 4.79998 14.5999H8.99996" fill="#78E08F"/>
<path d="M8.99996 14.5999L14.5999 2C15.7138 2 16.7821 2.4425 17.5697 3.23014C18.3574 4.01779 18.7999 5.08607 18.7999 6.19997V11.7999H26.7238C27.1297 11.7953 27.5317 11.879 27.902 12.0452C28.2723 12.2114 28.6021 12.4562 28.8684 12.7625C29.1348 13.0687 29.3313 13.4293 29.4445 13.8191C29.5577 14.2089 29.5847 14.6186 29.5238 15.0199L27.5918 27.6198C27.4906 28.2875 27.1514 28.8961 26.6369 29.3334C26.1224 29.7708 25.4671 30.0075 24.7919 29.9998H8.99996M8.99996 14.5999V29.9998M8.99996 14.5999H4.79998C4.05738 14.5999 3.34519 14.8949 2.8201 15.42C2.295 15.9451 2 16.6573 2 17.3999V27.1998C2 27.9424 2.295 28.6546 2.8201 29.1797C3.34519 29.7048 4.05738 29.9998 4.79998 29.9998H8.99996" stroke="#02263D" stroke-width="2.79998" stroke-linecap="round" stroke-linejoin="round"/>
</svg>
