<svg width="65" height="42" viewBox="0 0 65 42" fill="none" xmlns="http://www.w3.org/2000/svg">
<path fill-rule="evenodd" clip-rule="evenodd" d="M0.040692 38.2981C-0.680864 28.598 8.33807 28.9227 15.6144 24.7913V21.8842C7.09357 16.0776 11.2233 2 21.1046 2C30.7448 2 34.9492 16.1044 26.3439 21.8842C26.3439 23.3554 26.3439 23.3201 26.3439 24.7913C34.2294 29.0548 42.7754 28.4191 41.9438 38.2981C40.3395 40.3089 1.27442 40.8118 0.040692 38.2981Z" fill="#EB2F06"/>
<path d="M20.0434 38.3723L20.0578 38.5651L20.143 38.7387C20.292 39.0423 20.5306 39.2385 20.714 39.3595C20.9078 39.4874 21.1266 39.5879 21.3434 39.6698C21.7775 39.8339 22.3269 39.9692 22.9454 40.0852C24.1905 40.3185 25.8682 40.5004 27.8119 40.6388C31.7081 40.9162 36.7851 41.0263 41.8595 40.9948C46.9351 40.9632 52.0309 40.79 55.9673 40.4971C57.9324 40.351 59.6286 40.1736 60.8955 39.9653C61.5261 39.8616 62.0774 39.7459 62.5124 39.6141C62.7294 39.5483 62.9413 39.4715 63.1293 39.3785C63.2992 39.2944 63.5401 39.1542 63.7255 38.9217L63.9148 38.6845L63.9403 38.382C64.1602 35.7696 63.7683 33.7385 62.8317 32.1189C61.8974 30.5033 60.4864 29.4111 58.8832 28.5564C57.4262 27.7798 55.7367 27.1633 54.0221 26.5377C53.8711 26.4826 53.7199 26.4274 53.5687 26.3721C51.8464 25.7417 50.0783 25.0747 48.3439 24.1874V24.1817V24.1755V24.1693V24.1632V24.157V24.1509V24.1448V24.1387V24.1327V24.1267V24.1206V24.1147V24.1087V24.1028V24.0968V24.0909V24.0851V24.0792V24.0734V24.0676V24.0618V24.056V24.0502V24.0445V24.0388V24.0331V24.0274V24.0218V24.0161V24.0105V24.0049V23.9994V23.9938V23.9883V23.9828V23.9773V23.9718V23.9663V23.9609V23.9554V23.95V23.9447V23.9393V23.9339V23.9286V23.9233V23.918V23.9127V23.9074V23.9022V23.8969V23.8917V23.8865V23.8813V23.8762V23.871V23.8659V23.8608V23.8556V23.8506V23.8455V23.8404V23.8354V23.8304V23.8253V23.8203V23.8154V23.8104V23.8054V23.8005V23.7956V23.7906V23.7857V23.7809V23.776V23.7711V23.7663V23.7614V23.7566V23.7518V23.747V23.7422V23.7375V23.7327V23.728V23.7232V23.7185V23.7138V23.7091V23.7044V23.6997V23.6951V23.6904V23.6858V23.6811V23.6765V23.6719V23.6673V23.6627V23.6581V23.6536V23.649V23.6445V23.6399V23.6354V23.6309V23.6263V23.6218V23.6173V23.6129V23.6084V23.6039V23.5994V23.595V23.5906V23.5861V23.5817V23.5773V23.5728V23.5684V23.564V23.5597V23.5553V23.5509V23.5465V23.5422V23.5378V23.5334V23.5291V23.5248V23.5204V23.5161V23.5118V23.5075V23.5031V23.4988V23.4945V23.4902V23.4859V23.4817V23.4774V23.4731V23.4688V23.4646V23.4603V23.456V23.4518V23.4475V23.4433V23.439V23.4348V23.4305V23.4263V23.4221V23.4178V23.4136V23.4094V23.4052V23.4009V23.3967V23.3925V23.3883V23.3841V23.3798V23.3756V23.3714V23.3672V23.363V23.3588V23.3546V23.3504V23.3462V23.342V23.3378V23.3335V23.3293V23.3251V23.3209V23.3167V23.3125V23.3083V23.3041V23.2999V23.2957V23.2915V23.2872V23.283V23.2788V23.2746V23.2704V23.2661V23.2619V23.2577V23.2534V23.2492V23.245V23.2407V23.2365V23.2322V23.228V23.2237V23.2195V23.2152V23.211V23.2067V23.2024V23.1981V23.1938V23.1896V23.1853V23.181V23.1767V23.1724V23.1681V23.1637V23.1594V23.1551V23.1508V23.1464V23.1421V23.1377V23.1334V23.129V23.1246V23.1202V23.1159V23.1115V23.1071V23.1027V23.0982V23.0938V23.0894V23.085V23.0805V23.0761V23.0716V23.0671V23.0627V23.0582V23.0537V23.0492V23.0446V23.0401V23.0356V23.0311V23.0265V23.0219V23.0174V23.0128V23.0082V23.0036V22.999V22.9944V22.9897V22.9851V22.9804V22.9758V22.9711V22.9664V22.9617V22.957V22.9523V22.9475V22.9428V22.938V22.9333V22.9285V22.9237V22.9189V22.9141V22.9092V22.9044V22.8995V22.8946V22.8898V22.8849V22.8799V22.875V22.8701V22.8651V22.8602V22.8552V22.8502V22.8452V22.8401V22.8351V22.83V22.8249V22.8199V22.8148V22.8096V22.8045V22.7993V22.7942V22.789V22.7838V22.7786V22.7733V22.7681V22.7628V22.7575V22.7522V22.7469V22.7416V22.7362V22.7309V22.7255V22.7201V22.7146V22.7092V22.7037V22.6983V22.6928V22.6872V22.6817V22.6761V22.6706V22.665V22.6594V22.6537V22.6481V22.6424V22.6367V22.631V22.6253V22.6195V22.6137V22.608V22.6021V22.5963V22.5904V22.5846V22.5787V22.5728V22.5668V22.5608V22.5549V22.5489V22.5428V22.5368V22.5307V22.5246V22.5185V22.5123V22.5062V22.5V22.4938V22.4876V22.4813V22.475V22.4687V22.4624V22.456V22.4496V22.4432V22.4368V22.4304V22.4239V22.4174V22.4109V22.4043V22.403C52.7027 19.1906 53.7612 13.939 52.5298 9.50696C51.2612 4.94128 47.4836 1 42.1046 1C36.6175 1 32.7916 4.91994 31.4965 9.49211C30.2413 13.9236 31.2976 19.1738 35.6144 22.3988V24.2003C34.0183 25.0524 32.3356 25.7104 30.6563 26.3452C30.492 26.4073 30.3276 26.4692 30.163 26.5312C28.4942 27.1597 26.8203 27.7901 25.3559 28.5751C23.7327 29.4451 22.2787 30.5485 21.2941 32.1535C20.3029 33.7692 19.8512 35.7881 20.0434 38.3723Z" fill="#EB2F06" stroke="white" stroke-width="2"/>
</svg>
