<svg width="19" height="19" viewBox="0 0 19 19" fill="none" xmlns="http://www.w3.org/2000/svg">
<path d="M10.9844 14.2493H8.01562C7.52207 14.2493 7.125 13.8522 7.125 13.3585V7.12326H3.87051C3.20996 7.12326 2.87969 6.32529 3.34727 5.85765L8.9916 0.208771C9.26992 -0.0695903 9.72637 -0.0695903 10.0047 0.208771L15.6527 5.85765C16.1203 6.32529 15.79 7.12326 15.1295 7.12326H11.875V13.3585C11.875 13.8522 11.4779 14.2493 10.9844 14.2493ZM19 13.9524V18.1092C19 18.6029 18.6029 19 18.1094 19H0.890625C0.39707 19 0 18.6029 0 18.1092V13.9524C0 13.4588 0.39707 13.0616 0.890625 13.0616H5.9375V13.3585C5.9375 14.5054 6.86895 15.437 8.01562 15.437H10.9844C12.1311 15.437 13.0625 14.5054 13.0625 13.3585V13.0616H18.1094C18.6029 13.0616 19 13.4588 19 13.9524ZM14.3984 17.2185C14.3984 16.8102 14.0645 16.4762 13.6562 16.4762C13.248 16.4762 12.9141 16.8102 12.9141 17.2185C12.9141 17.6268 13.248 17.9608 13.6562 17.9608C14.0645 17.9608 14.3984 17.6268 14.3984 17.2185ZM16.7734 17.2185C16.7734 16.8102 16.4395 16.4762 16.0312 16.4762C15.623 16.4762 15.2891 16.8102 15.2891 17.2185C15.2891 17.6268 15.623 17.9608 16.0312 17.9608C16.4395 17.9608 16.7734 17.6268 16.7734 17.2185Z" fill="#1D4999"/>
</svg>
